<svg id="svg" version="1.1" width="400" height="400" viewBox="0 0 400 400" xmlns="http://www.w3.org/2000/svg" xmlns:xlink="http://www.w3.org/1999/xlink" ><g id="svgg"><path id="path0" d="M114.000 3.000 L 114.000 6.000 105.400 6.000 C 99.933 6.000,96.800 6.146,96.800 6.400 C 96.800 6.620,96.350 6.800,95.800 6.800 C 95.250 6.800,94.800 6.968,94.800 7.173 C 94.800 7.378,94.440 7.660,94.000 7.800 C 93.489 7.962,93.200 8.405,93.200 9.027 C 93.200 9.562,93.020 10.000,92.800 10.000 C 92.565 10.000,92.400 11.400,92.400 13.400 L 92.400 16.800 87.547 16.800 C 83.101 16.800,82.632 16.871,81.959 17.648 C 81.487 18.191,80.572 18.569,79.412 18.700 C 78.415 18.812,77.600 19.061,77.600 19.252 C 77.600 19.443,77.406 19.600,77.169 19.600 C 76.619 19.600,73.600 22.632,73.600 23.184 C 73.600 23.413,73.420 23.600,73.200 23.600 C 72.980 23.600,72.798 24.095,72.795 24.700 C 72.780 27.581,72.749 27.600,67.953 27.600 C 65.318 27.600,63.600 27.758,63.600 28.000 C 63.600 28.220,63.227 28.400,62.771 28.400 C 61.710 28.400,60.800 29.310,60.800 30.371 C 60.800 30.827,60.620 31.200,60.400 31.200 C 60.163 31.200,60.000 32.667,60.000 34.800 L 60.000 38.400 55.600 38.400 C 52.933 38.400,51.200 38.558,51.200 38.800 C 51.200 39.020,50.930 39.200,50.600 39.200 C 50.270 39.200,50.000 39.470,50.000 39.800 C 50.000 40.130,49.820 40.400,49.600 40.400 C 49.358 40.400,49.200 42.133,49.200 44.800 L 49.200 49.200 44.800 49.200 C 42.133 49.200,40.400 49.358,40.400 49.600 C 40.400 49.820,40.130 50.000,39.800 50.000 C 39.470 50.000,39.200 50.270,39.200 50.600 C 39.200 50.930,39.020 51.200,38.800 51.200 C 38.558 51.200,38.400 52.933,38.400 55.600 L 38.400 60.000 34.400 60.000 C 32.000 60.000,30.400 60.160,30.400 60.400 C 30.400 60.620,30.207 60.800,29.971 60.800 C 29.418 60.800,28.400 61.818,28.400 62.371 C 28.400 62.607,28.220 62.800,28.000 62.800 C 27.762 62.800,27.600 64.322,27.600 66.567 C 27.600 71.699,27.664 71.600,24.357 71.600 C 22.841 71.600,21.600 71.772,21.600 71.982 C 21.600 72.192,20.987 72.479,20.237 72.619 C 19.077 72.837,18.837 73.077,18.619 74.237 C 18.479 74.987,18.192 75.600,17.982 75.600 C 17.772 75.600,17.600 76.860,17.600 78.400 C 17.600 80.000,17.429 81.200,17.200 81.200 C 16.952 81.200,16.800 83.333,16.800 86.800 L 16.800 92.400 12.800 92.400 C 10.400 92.400,8.800 92.560,8.800 92.800 C 8.800 93.020,8.607 93.200,8.371 93.200 C 7.818 93.200,6.800 94.218,6.800 94.771 C 6.800 95.007,6.620 95.200,6.400 95.200 C 6.150 95.200,6.000 97.600,6.000 101.600 L 6.000 108.000 3.000 108.000 L 0.000 108.000 0.000 202.600 L 0.000 297.200 3.000 297.200 L 6.000 297.200 6.000 302.400 C 6.000 305.600,6.154 307.600,6.400 307.600 C 6.620 307.600,6.800 307.870,6.800 308.200 C 6.800 308.530,6.954 308.800,7.143 308.800 C 7.332 308.800,7.600 309.886,7.738 311.213 C 7.917 312.926,8.253 313.908,8.895 314.594 C 9.393 315.126,10.032 315.840,10.316 316.181 C 10.599 316.521,11.274 316.800,11.816 316.800 C 12.357 316.800,12.800 316.980,12.800 317.200 C 12.800 317.420,13.591 317.600,14.557 317.600 C 16.757 317.600,16.800 317.709,16.800 323.233 C 16.800 325.878,16.958 327.600,17.200 327.600 C 17.420 327.600,17.600 327.939,17.600 328.353 C 17.600 329.371,18.631 329.588,23.500 329.595 L 27.600 329.600 27.600 334.800 C 27.600 338.000,27.754 340.000,28.000 340.000 C 28.220 340.000,28.400 340.270,28.400 340.600 C 28.400 340.930,28.557 341.200,28.748 341.200 C 28.940 341.200,29.220 342.451,29.371 343.980 C 29.594 346.243,29.789 346.806,30.422 347.007 C 30.850 347.143,31.200 347.409,31.200 347.598 C 31.200 348.282,32.478 349.200,33.429 349.200 C 33.963 349.200,34.400 349.380,34.400 349.600 C 34.400 349.820,35.207 350.000,36.192 350.000 C 37.771 350.000,38.015 350.119,38.236 351.000 C 38.374 351.550,38.647 352.000,38.843 352.000 C 39.040 352.000,39.200 353.260,39.200 354.800 C 39.200 356.340,39.366 357.600,39.568 357.600 C 39.771 357.600,40.055 358.140,40.200 358.800 C 40.381 359.625,40.703 360.000,41.232 360.000 C 41.654 360.000,42.000 360.180,42.000 360.400 C 42.000 360.620,42.270 360.800,42.600 360.800 C 42.930 360.800,43.200 360.980,43.200 361.200 C 43.200 361.420,44.235 361.602,45.500 361.604 C 50.373 361.614,50.670 361.768,50.973 364.445 C 51.120 365.740,51.411 366.800,51.620 366.800 C 51.829 366.800,52.000 367.064,52.000 367.386 C 52.000 368.500,54.287 370.373,55.979 370.643 C 56.870 370.786,57.600 371.059,57.600 371.251 C 57.600 371.443,58.063 371.600,58.629 371.600 C 59.194 371.600,59.927 371.870,60.257 372.200 C 60.726 372.669,61.943 372.800,65.829 372.800 L 70.800 372.800 70.800 377.200 C 70.800 379.867,70.958 381.600,71.200 381.600 C 71.420 381.600,71.600 381.939,71.600 382.353 C 71.600 383.380,72.629 383.588,77.729 383.595 C 82.854 383.601,82.969 383.675,83.337 387.204 C 83.486 388.632,83.805 389.866,84.046 389.947 C 84.286 390.028,84.979 390.613,85.585 391.247 C 86.191 391.881,87.072 392.400,87.543 392.400 C 88.014 392.400,88.400 392.580,88.400 392.800 C 88.400 393.020,89.195 393.200,90.167 393.200 C 91.225 393.200,92.000 393.401,92.099 393.700 C 92.219 394.059,93.811 394.237,97.733 394.331 L 103.200 394.462 103.200 397.231 L 103.200 400.000 194.800 400.000 L 286.400 400.000 286.400 397.220 L 286.400 394.439 296.329 394.320 C 308.557 394.172,307.742 394.603,307.933 388.190 L 308.066 383.721 316.523 383.490 C 321.998 383.341,325.031 383.108,325.123 382.830 C 325.202 382.593,325.612 382.400,326.033 382.400 C 327.035 382.400,328.400 381.016,328.400 380.000 C 328.400 379.560,328.580 379.200,328.800 379.200 C 329.020 379.200,329.200 378.322,329.200 377.250 C 329.200 376.177,329.309 374.753,329.443 374.083 L 329.687 372.867 334.173 372.733 C 340.153 372.556,340.156 372.553,340.333 366.570 L 340.467 362.080 345.400 361.940 C 351.390 361.770,350.970 362.190,351.140 356.207 L 351.280 351.280 356.207 351.140 C 362.189 350.970,361.770 351.388,361.940 345.416 L 362.080 340.498 366.592 340.325 C 372.641 340.093,372.526 340.220,372.734 333.541 C 372.881 328.831,372.958 328.400,373.647 328.400 C 374.061 328.400,374.400 328.243,374.400 328.052 C 374.400 327.861,375.215 327.612,376.212 327.500 C 377.880 327.312,379.600 326.127,379.600 325.166 C 379.600 324.994,379.955 324.741,380.389 324.603 C 380.980 324.416,381.245 323.855,381.441 322.376 C 381.585 321.289,381.860 320.400,382.052 320.400 C 382.243 320.400,382.400 320.059,382.400 319.643 C 382.400 319.226,382.670 318.782,383.000 318.655 C 383.490 318.467,383.600 317.484,383.600 313.273 L 383.600 308.121 387.696 307.871 C 389.949 307.734,391.854 307.437,391.930 307.211 C 392.005 306.985,392.322 306.800,392.633 306.800 C 392.945 306.800,393.200 306.530,393.200 306.200 C 393.200 305.870,393.380 305.600,393.600 305.600 C 393.820 305.600,394.000 304.970,394.000 304.200 C 394.000 303.430,394.180 302.800,394.400 302.800 C 394.654 302.800,394.800 299.800,394.800 294.600 L 394.800 286.400 397.400 286.400 L 400.000 286.400 400.000 201.400 L 400.000 116.400 397.400 116.400 L 394.800 116.400 394.800 110.200 C 394.800 106.333,394.649 104.000,394.400 104.000 C 394.180 104.000,394.000 103.730,394.000 103.400 C 394.000 103.070,393.820 102.800,393.600 102.800 C 393.380 102.800,393.200 101.990,393.200 101.000 C 393.200 100.010,393.020 99.200,392.800 99.200 C 392.580 99.200,392.400 98.814,392.400 98.343 C 392.400 97.872,391.881 96.991,391.247 96.385 C 390.613 95.779,390.028 95.086,389.947 94.846 C 389.866 94.605,388.632 94.286,387.204 94.137 C 383.736 93.775,383.695 93.711,383.536 88.335 C 383.400 83.743,382.968 82.400,381.629 82.400 C 381.393 82.400,381.200 82.220,381.200 82.000 C 381.200 81.759,379.548 81.600,377.044 81.600 L 372.889 81.600 372.737 75.731 C 372.629 71.551,372.444 69.815,372.093 69.698 C 371.814 69.605,371.600 68.852,371.600 67.967 C 371.600 67.105,371.443 66.400,371.250 66.400 C 371.058 66.400,370.790 65.850,370.655 65.177 C 370.404 63.918,369.560 62.800,368.862 62.800 C 368.645 62.800,368.404 62.611,368.327 62.381 C 368.250 62.150,367.155 61.855,365.894 61.725 C 364.632 61.595,363.600 61.333,363.600 61.144 C 363.600 60.955,363.259 60.800,362.843 60.800 C 361.908 60.800,361.600 60.050,361.600 57.767 C 361.600 56.795,361.420 56.000,361.200 56.000 C 360.980 56.000,360.800 55.550,360.800 55.000 C 360.800 54.450,360.620 54.000,360.400 54.000 C 360.180 54.000,360.000 53.758,360.000 53.461 C 360.000 52.461,358.482 51.163,357.036 50.928 C 356.246 50.800,355.600 50.539,355.600 50.348 C 355.600 50.156,354.629 50.000,353.443 50.000 C 350.947 50.000,350.800 49.810,350.800 46.567 C 350.800 45.375,350.620 44.400,350.400 44.400 C 350.180 44.400,350.000 43.950,350.000 43.400 C 350.000 42.850,349.840 42.400,349.643 42.400 C 349.447 42.400,349.177 41.961,349.042 41.424 C 348.842 40.630,348.462 40.398,346.998 40.179 C 346.009 40.031,345.200 39.750,345.200 39.555 C 345.200 39.360,344.120 39.200,342.800 39.200 C 341.467 39.200,340.400 39.022,340.400 38.800 C 340.400 38.580,339.973 38.400,339.452 38.400 C 338.615 38.400,338.472 38.163,338.238 36.400 C 338.092 35.300,337.799 34.400,337.586 34.400 C 337.374 34.400,337.200 34.130,337.200 33.800 C 337.200 33.470,337.032 33.200,336.827 33.200 C 336.622 33.200,336.337 32.833,336.195 32.384 C 336.041 31.899,335.461 31.472,334.768 31.334 C 334.126 31.205,333.600 30.942,333.600 30.750 C 333.600 30.558,333.330 30.400,333.000 30.400 C 332.670 30.400,332.400 30.220,332.400 30.000 C 332.400 29.780,331.790 29.600,331.043 29.600 C 329.930 29.600,329.642 29.421,329.436 28.600 L 329.185 27.600 324.028 27.600 L 318.871 27.600 318.735 23.270 C 318.600 18.955,318.145 17.600,316.829 17.600 C 316.593 17.600,316.400 17.420,316.400 17.200 C 316.400 16.956,314.533 16.800,311.600 16.800 L 306.800 16.800 306.800 15.400 C 306.800 14.630,306.643 14.000,306.451 14.000 C 306.259 14.000,305.994 13.323,305.862 12.496 C 305.720 11.607,305.270 10.748,304.762 10.396 C 304.289 10.068,303.667 9.575,303.380 9.300 C 303.092 9.025,302.664 8.800,302.429 8.800 C 302.193 8.800,302.000 8.629,302.000 8.420 C 302.000 8.211,300.920 7.918,299.600 7.768 C 298.280 7.619,297.200 7.340,297.200 7.148 C 297.200 6.957,296.930 6.800,296.600 6.800 C 296.270 6.800,296.000 6.620,296.000 6.400 C 296.000 6.155,294.067 6.000,291.000 6.000 L 286.000 6.000 286.000 3.000 L 286.000 0.000 200.000 0.000 L 114.000 0.000 114.000 3.000 M102.800 13.200 C 102.800 13.420,102.725 13.600,102.633 13.600 C 102.541 13.600,102.142 13.724,101.746 13.876 C 101.103 14.123,101.089 14.082,101.613 13.491 C 102.281 12.739,102.800 12.612,102.800 13.200 M299.448 14.629 C 301.117 16.370,301.428 16.800,301.018 16.800 C 300.674 16.800,298.800 14.763,298.800 14.389 C 298.800 14.184,298.350 13.902,297.800 13.764 C 297.250 13.626,296.800 13.353,296.800 13.157 C 296.800 12.351,297.796 12.905,299.448 14.629 M100.800 15.029 C 100.800 15.154,100.521 15.536,100.181 15.876 C 99.400 16.657,98.931 16.266,99.660 15.442 C 100.206 14.824,100.800 14.609,100.800 15.029 M296.240 16.183 C 296.566 16.509,297.121 16.652,297.498 16.507 C 298.091 16.280,298.103 16.323,297.598 16.864 C 297.104 17.393,296.944 17.401,296.460 16.917 C 296.150 16.607,295.659 16.445,295.369 16.557 C 295.033 16.685,294.922 16.548,295.063 16.180 C 295.342 15.454,295.512 15.454,296.240 16.183 M168.196 27.506 C 167.974 27.668,167.479 28.128,167.096 28.529 C 166.713 28.929,166.400 29.077,166.400 28.857 C 166.400 28.303,167.556 27.199,168.129 27.206 C 168.429 27.210,168.454 27.319,168.196 27.506 M213.762 29.200 C 213.908 30.300,214.201 31.200,214.414 31.200 C 214.626 31.200,214.800 31.386,214.800 31.613 C 214.800 32.235,217.142 34.400,217.814 34.400 C 218.136 34.400,218.400 34.580,218.400 34.800 C 218.400 35.020,218.670 35.200,219.000 35.200 C 219.330 35.200,219.600 35.380,219.600 35.600 C 219.600 35.820,220.236 36.000,221.013 36.000 C 221.899 36.000,222.511 36.223,222.655 36.600 C 222.797 36.970,223.405 37.200,224.243 37.200 C 224.989 37.200,225.600 37.380,225.600 37.600 C 225.600 37.859,230.733 38.000,240.200 38.000 L 254.800 38.000 254.800 40.000 C 254.800 41.100,254.980 42.000,255.200 42.000 C 255.420 42.000,255.600 42.517,255.600 43.150 C 255.600 45.540,256.070 46.802,257.051 47.049 C 257.573 47.180,258.000 47.447,258.000 47.643 C 258.000 47.840,258.810 48.000,259.800 48.000 C 260.790 48.000,261.600 48.180,261.600 48.400 C 261.600 48.652,264.304 48.802,268.900 48.806 C 277.552 48.813,277.067 48.595,277.265 52.570 C 277.365 54.589,277.600 55.800,277.911 55.904 C 278.180 55.993,278.400 56.404,278.400 56.815 C 278.400 57.354,278.792 57.637,279.800 57.826 C 280.570 57.971,281.200 58.249,281.200 58.445 C 281.200 58.640,282.370 58.800,283.800 58.800 C 285.267 58.800,286.400 58.974,286.400 59.200 C 286.400 59.448,288.600 59.600,292.200 59.600 L 298.000 59.600 298.000 63.600 C 298.000 65.800,298.160 67.600,298.357 67.600 C 298.553 67.600,298.826 68.050,298.964 68.600 C 299.126 69.246,299.496 69.600,300.008 69.600 C 300.443 69.600,300.800 69.780,300.800 70.000 C 300.800 70.240,302.400 70.400,304.800 70.400 L 308.800 70.400 308.800 73.800 C 308.800 75.800,308.965 77.200,309.200 77.200 C 309.420 77.200,309.600 77.610,309.600 78.111 C 309.600 79.185,310.877 80.400,312.005 80.400 C 312.442 80.400,312.800 80.580,312.800 80.800 C 312.800 81.035,314.200 81.200,316.200 81.200 L 319.600 81.200 319.600 84.600 C 319.600 86.600,319.765 88.000,320.000 88.000 C 320.220 88.000,320.400 88.410,320.400 88.911 C 320.400 89.985,321.677 91.200,322.805 91.200 C 323.242 91.200,323.600 91.380,323.600 91.600 C 323.600 91.835,325.000 92.000,327.000 92.000 L 330.400 92.000 330.400 95.600 C 330.400 97.733,330.563 99.200,330.800 99.200 C 331.020 99.200,331.200 99.545,331.200 99.967 C 331.200 101.342,331.667 102.000,332.643 102.000 C 333.169 102.000,333.600 102.180,333.600 102.400 C 333.600 102.639,335.133 102.800,337.400 102.800 L 341.200 102.800 341.200 108.200 C 341.200 111.170,341.355 113.600,341.544 113.600 C 341.733 113.600,341.983 115.129,342.099 116.998 C 342.333 120.737,343.663 122.800,345.842 122.800 C 346.369 122.800,346.800 122.980,346.800 123.200 C 346.800 123.426,347.933 123.600,349.400 123.600 L 352.000 123.600 352.000 130.800 C 352.000 134.760,352.158 138.000,352.352 138.000 C 352.545 138.000,352.782 139.074,352.877 140.388 C 353.052 142.807,354.078 144.400,355.461 144.400 C 355.758 144.400,356.000 144.580,356.000 144.800 C 356.000 145.020,356.900 145.200,358.000 145.200 C 359.100 145.200,360.000 145.380,360.000 145.600 C 360.000 145.820,360.630 146.000,361.400 146.000 L 362.800 146.000 362.800 160.800 C 362.800 169.076,362.955 175.600,363.153 175.600 C 363.347 175.600,363.633 177.130,363.789 179.000 C 363.944 180.870,364.236 182.400,364.436 182.400 C 364.636 182.400,364.800 182.767,364.800 183.216 C 364.800 184.285,367.703 187.200,368.769 187.200 C 369.226 187.200,369.600 187.380,369.600 187.600 C 369.600 187.820,370.215 188.000,370.967 188.000 C 373.797 188.000,373.600 186.736,373.600 204.871 C 373.600 223.766,373.967 222.244,369.356 222.454 C 365.239 222.642,363.959 223.679,363.679 227.053 C 363.581 228.234,363.343 229.200,363.150 229.200 C 362.957 229.200,362.800 235.196,362.800 242.600 L 362.800 256.000 361.400 256.000 C 360.630 256.000,360.000 256.180,360.000 256.400 C 360.000 256.620,359.550 256.800,359.000 256.800 C 358.450 256.800,358.000 256.960,358.000 257.157 C 358.000 257.353,357.562 257.623,357.027 257.758 C 356.491 257.892,355.939 258.361,355.800 258.801 C 355.660 259.240,355.378 259.600,355.173 259.600 C 354.968 259.600,354.800 259.870,354.800 260.200 C 354.800 260.530,354.620 260.800,354.400 260.800 C 354.180 260.800,354.000 261.250,354.000 261.800 C 354.000 262.350,353.843 262.800,353.652 262.800 C 353.460 262.800,353.181 263.880,353.032 265.200 C 352.882 266.520,352.589 267.600,352.380 267.600 C 352.151 267.600,352.000 271.264,352.000 276.829 C 352.000 287.866,352.306 287.200,347.233 287.200 C 343.390 287.200,342.000 287.755,342.000 289.289 C 342.000 289.680,341.820 290.000,341.600 290.000 C 341.357 290.000,341.200 291.800,341.200 294.600 L 341.200 299.200 339.800 299.200 C 339.030 299.200,338.400 299.380,338.400 299.600 C 338.400 299.820,337.950 300.000,337.400 300.000 C 336.850 300.000,336.400 300.180,336.400 300.400 C 336.400 300.620,336.138 300.800,335.818 300.800 C 335.064 300.800,333.200 302.664,333.200 303.418 C 333.200 303.738,333.020 304.000,332.800 304.000 C 332.580 304.000,332.400 304.450,332.400 305.000 C 332.400 305.550,332.220 306.000,332.000 306.000 C 331.780 306.000,331.600 306.630,331.600 307.400 C 331.600 308.378,331.419 308.800,331.000 308.800 C 330.500 308.800,330.400 309.603,330.400 313.629 C 330.400 319.763,330.547 319.600,325.000 319.600 C 320.106 319.600,319.600 319.859,319.600 322.371 C 319.600 324.061,318.564 325.600,317.427 325.600 C 317.112 325.600,316.743 325.951,316.606 326.380 C 316.470 326.808,316.008 327.270,315.580 327.406 C 315.151 327.543,314.800 327.912,314.800 328.227 C 314.800 329.364,313.261 330.400,311.571 330.400 C 310.128 330.400,308.800 331.071,308.800 331.800 C 308.800 332.388,307.690 333.094,306.377 333.340 C 305.605 333.485,304.715 333.963,304.399 334.402 C 304.082 334.841,303.593 335.200,303.312 335.200 C 303.030 335.200,302.800 335.430,302.800 335.712 C 302.800 335.993,302.441 336.482,302.002 336.799 C 301.563 337.115,301.085 338.005,300.940 338.777 C 300.529 340.972,300.067 341.200,296.029 341.200 C 294.033 341.200,292.400 341.357,292.400 341.548 C 292.400 341.740,291.522 342.013,290.449 342.156 C 288.385 342.429,288.000 343.011,288.000 345.850 C 288.000 346.373,287.820 346.800,287.600 346.800 C 287.374 346.800,287.200 347.933,287.200 349.400 L 287.200 352.000 282.371 352.000 C 277.024 352.000,276.400 352.246,276.400 354.353 C 276.400 355.420,276.234 355.595,275.000 355.826 C 274.230 355.971,273.600 356.249,273.600 356.445 C 273.600 356.640,273.330 356.800,273.000 356.800 C 272.670 356.800,272.400 356.968,272.400 357.173 C 272.400 357.378,272.040 357.660,271.601 357.800 C 271.161 357.939,270.692 358.491,270.558 359.027 C 270.423 359.562,270.153 360.000,269.957 360.000 C 269.760 360.000,269.600 360.360,269.600 360.800 C 269.600 361.240,269.420 361.600,269.200 361.600 C 268.980 361.600,268.800 361.870,268.800 362.200 C 268.800 362.718,267.378 362.800,258.400 362.800 C 252.669 362.800,248.000 362.958,248.000 363.152 C 248.000 363.346,246.290 363.633,244.200 363.790 C 242.110 363.946,240.400 364.238,240.400 364.437 C 240.400 364.637,239.860 364.800,239.200 364.800 C 238.540 364.800,238.000 364.980,238.000 365.200 C 238.000 365.420,237.736 365.600,237.414 365.600 C 236.742 365.600,234.400 367.765,234.400 368.387 C 234.400 368.614,234.231 368.800,234.025 368.800 C 233.818 368.800,233.522 369.649,233.366 370.687 C 232.893 373.841,235.816 373.600,198.047 373.600 L 164.036 373.600 163.774 372.200 C 163.629 371.430,163.351 370.800,163.155 370.800 C 162.960 370.800,162.800 370.606,162.800 370.369 C 162.800 369.809,160.591 367.600,160.031 367.600 C 159.794 367.600,159.600 367.440,159.600 367.245 C 159.600 367.049,159.009 366.778,158.287 366.643 C 157.565 366.507,156.715 366.037,156.399 365.598 C 156.082 365.159,155.428 364.800,154.945 364.800 C 154.462 364.800,154.004 364.612,153.928 364.383 C 153.850 364.149,151.901 363.859,149.494 363.723 C 147.132 363.589,145.200 363.327,145.200 363.140 C 145.200 362.953,140.520 362.800,134.800 362.800 L 124.400 362.800 124.400 359.200 C 124.400 357.067,124.237 355.600,124.000 355.600 C 123.780 355.600,123.600 355.079,123.600 354.443 C 123.600 353.266,123.023 352.800,121.567 352.800 C 121.145 352.800,120.800 352.620,120.800 352.400 C 120.800 352.145,117.533 352.000,111.800 352.000 L 102.800 352.000 102.800 347.227 C 102.800 342.805,102.741 342.435,102.000 342.200 C 101.560 342.060,101.200 341.778,101.200 341.573 C 101.200 341.364,99.178 341.200,96.600 341.200 L 92.000 341.200 92.000 337.200 C 92.000 334.800,91.840 333.200,91.600 333.200 C 91.380 333.200,91.200 332.843,91.200 332.408 C 91.200 331.896,90.846 331.526,90.200 331.364 C 89.650 331.226,89.200 330.953,89.200 330.757 C 89.200 330.560,87.400 330.400,85.200 330.400 L 81.200 330.400 81.200 326.600 C 81.200 324.333,81.039 322.800,80.800 322.800 C 80.580 322.800,80.400 322.369,80.400 321.843 C 80.400 320.867,79.742 320.400,78.367 320.400 C 77.945 320.400,77.600 320.220,77.600 320.000 C 77.600 319.763,76.133 319.600,74.000 319.600 L 70.400 319.600 70.400 315.600 C 70.400 313.200,70.240 311.600,70.000 311.600 C 69.780 311.600,69.600 311.243,69.600 310.808 C 69.600 310.296,69.246 309.926,68.600 309.764 C 68.050 309.626,67.600 309.353,67.600 309.157 C 67.600 308.960,65.800 308.800,63.600 308.800 L 59.600 308.800 59.600 304.027 C 59.600 299.605,59.541 299.235,58.800 299.000 C 58.360 298.860,58.000 298.578,58.000 298.373 C 58.000 298.165,56.071 298.000,53.643 298.000 C 48.325 298.000,48.800 298.964,48.800 288.167 C 48.800 282.722,48.654 279.600,48.400 279.600 C 48.180 279.600,48.000 279.169,48.000 278.643 C 48.000 277.667,47.342 277.200,45.967 277.200 C 45.545 277.200,45.200 277.020,45.200 276.800 C 45.200 276.563,43.733 276.400,41.600 276.400 L 38.000 276.400 38.000 266.000 C 38.000 259.333,37.856 255.600,37.600 255.600 C 37.380 255.600,37.200 254.970,37.200 254.200 C 37.200 253.430,37.047 252.800,36.860 252.800 C 36.673 252.800,36.402 251.135,36.257 249.100 C 36.113 247.065,35.816 245.340,35.598 245.267 C 35.379 245.193,35.200 244.878,35.200 244.567 C 35.200 244.255,35.020 244.000,34.800 244.000 C 34.580 244.000,34.400 243.640,34.400 243.200 C 34.400 242.760,34.240 242.400,34.043 242.400 C 33.847 242.400,33.572 241.943,33.432 241.384 C 33.112 240.112,31.131 238.000,30.257 238.000 C 29.896 238.000,29.600 237.820,29.600 237.600 C 29.600 237.380,29.330 237.200,29.000 237.200 C 28.670 237.200,28.400 237.020,28.400 236.800 C 28.400 236.580,28.130 236.400,27.800 236.400 C 26.763 236.400,26.907 168.860,27.947 167.661 C 28.358 167.188,28.890 166.800,29.129 166.800 C 29.724 166.800,31.600 164.879,31.600 164.270 C 31.600 163.999,31.947 163.526,32.372 163.220 C 32.861 162.868,33.241 161.956,33.409 160.732 C 33.555 159.669,33.838 158.800,34.038 158.800 C 34.237 158.800,34.400 158.350,34.400 157.800 C 34.400 157.070,34.614 156.800,35.192 156.800 C 35.704 156.800,36.074 156.446,36.236 155.800 C 36.374 155.250,36.647 154.800,36.843 154.800 C 37.040 154.800,37.200 153.990,37.200 153.000 C 37.200 152.010,37.380 151.200,37.600 151.200 C 37.855 151.200,38.000 147.933,38.000 142.200 L 38.000 133.200 39.200 133.200 C 39.860 133.200,40.400 133.020,40.400 132.800 C 40.400 132.580,40.760 132.400,41.200 132.400 C 41.640 132.400,42.000 132.220,42.000 132.000 C 42.000 131.780,42.262 131.600,42.582 131.600 C 43.336 131.600,45.200 129.736,45.200 128.982 C 45.200 128.662,45.380 128.400,45.600 128.400 C 45.820 128.400,46.000 128.130,46.000 127.800 C 46.000 127.470,46.180 127.200,46.400 127.200 C 46.620 127.200,46.800 126.570,46.800 125.800 C 46.800 125.030,46.993 124.400,47.229 124.400 C 48.494 124.400,48.800 123.238,48.800 118.429 L 48.800 113.600 51.000 113.600 C 52.210 113.600,53.200 113.420,53.200 113.200 C 53.200 112.980,53.934 112.800,54.831 112.800 C 57.024 112.800,58.800 111.113,58.800 109.031 C 58.800 108.244,58.980 107.600,59.200 107.600 C 59.433 107.600,59.600 106.278,59.600 104.433 C 59.600 100.613,59.799 100.000,61.043 100.000 C 61.569 100.000,62.000 99.820,62.000 99.600 C 62.000 99.380,62.366 99.200,62.813 99.200 C 63.259 99.200,63.729 98.930,63.855 98.600 C 63.982 98.270,64.426 98.000,64.843 98.000 C 65.259 98.000,65.600 97.807,65.600 97.571 C 65.600 97.336,65.870 96.873,66.200 96.543 C 66.530 96.213,66.800 95.596,66.800 95.171 C 66.800 94.747,66.980 94.400,67.200 94.400 C 67.420 94.400,67.600 93.962,67.600 93.427 C 67.600 92.775,67.891 92.362,68.481 92.174 C 70.239 91.616,70.400 91.100,70.400 86.029 L 70.400 81.200 74.818 81.200 C 80.952 81.200,81.200 80.952,81.200 74.818 L 81.200 70.400 86.053 70.400 C 90.283 70.400,90.989 70.305,91.553 69.657 C 91.965 69.184,93.034 68.811,94.500 68.628 C 95.765 68.471,96.800 68.175,96.800 67.971 C 96.800 67.767,96.994 67.600,97.231 67.600 C 97.893 67.600,100.000 65.341,100.000 64.631 C 100.000 64.284,100.167 64.000,100.371 64.000 C 100.575 64.000,100.866 63.010,101.017 61.800 L 101.292 59.600 105.646 59.600 C 108.282 59.600,110.000 59.442,110.000 59.200 C 110.000 58.980,110.373 58.800,110.829 58.800 C 111.890 58.800,112.800 57.890,112.800 56.829 C 112.800 56.373,112.980 56.000,113.200 56.000 C 113.437 56.000,113.600 54.533,113.600 52.400 L 113.600 48.800 123.400 48.800 C 129.667 48.800,133.200 48.656,133.200 48.400 C 133.200 48.180,133.393 48.000,133.629 48.000 C 133.864 48.000,134.327 47.730,134.657 47.400 C 134.987 47.070,135.874 46.800,136.629 46.800 C 137.383 46.800,138.000 46.620,138.000 46.400 C 138.000 46.180,138.270 46.000,138.600 46.000 C 138.930 46.000,139.200 45.820,139.200 45.600 C 139.200 45.380,139.470 45.200,139.800 45.200 C 140.130 45.200,140.400 45.032,140.400 44.827 C 140.400 44.622,140.760 44.340,141.199 44.200 C 141.639 44.061,142.108 43.509,142.242 42.973 C 142.377 42.438,142.647 42.000,142.843 42.000 C 143.040 42.000,143.200 41.640,143.200 41.200 C 143.200 40.760,143.380 40.400,143.600 40.400 C 143.820 40.400,144.000 39.860,144.000 39.200 L 144.000 38.000 157.800 38.000 C 166.733 38.000,171.600 37.859,171.600 37.600 C 171.600 37.380,172.410 37.200,173.400 37.200 C 174.390 37.200,175.200 37.040,175.200 36.843 C 175.200 36.647,175.627 36.380,176.149 36.249 C 177.130 36.002,177.600 34.740,177.600 32.350 C 177.600 31.718,177.780 31.200,178.000 31.200 C 178.220 31.200,178.400 30.300,178.400 29.200 L 178.400 27.200 195.948 27.200 L 213.497 27.200 213.762 29.200 M126.400 43.200 C 126.400 43.640,126.220 44.000,126.000 44.000 C 125.780 44.000,125.600 43.640,125.600 43.200 C 125.600 42.760,125.780 42.400,126.000 42.400 C 126.220 42.400,126.400 42.760,126.400 43.200 M344.477 47.304 C 344.765 47.407,344.874 47.627,344.719 47.793 C 344.565 47.959,344.166 47.849,343.833 47.548 C 343.500 47.246,342.952 46.768,342.614 46.484 C 342.276 46.201,342.000 45.787,342.000 45.566 C 342.000 45.345,342.440 45.603,342.977 46.141 C 343.515 46.678,344.190 47.202,344.477 47.304 M199.200 50.349 C 199.200 50.541,198.263 50.788,197.117 50.898 C 195.971 51.008,194.966 51.301,194.884 51.549 C 194.801 51.797,194.465 52.000,194.138 52.000 C 193.255 52.000,192.421 52.994,192.145 54.377 C 192.010 55.050,191.743 55.600,191.550 55.600 C 191.358 55.600,191.200 56.320,191.200 57.200 C 191.200 58.080,191.028 58.800,190.818 58.800 C 190.608 58.800,190.322 59.409,190.183 60.152 C 189.936 61.467,189.863 61.512,187.564 61.772 C 186.264 61.919,185.200 62.211,185.200 62.420 C 185.200 62.629,184.936 62.800,184.614 62.800 C 183.500 62.800,181.627 65.087,181.357 66.779 C 181.214 67.670,180.941 68.400,180.749 68.400 C 180.557 68.400,180.400 69.750,180.400 71.400 C 180.400 73.133,180.231 74.400,180.000 74.400 C 179.735 74.400,179.598 95.637,179.595 137.300 C 179.592 171.895,179.481 200.605,179.348 201.100 L 179.107 202.000 141.187 202.000 C 111.225 202.000,103.224 201.895,103.065 201.500 C 102.904 201.100,102.857 201.100,102.832 201.500 C 102.810 201.841,102.036 202.000,100.400 202.000 C 99.080 202.000,98.000 202.157,98.000 202.349 C 98.000 202.541,97.280 202.813,96.400 202.954 C 95.520 203.094,94.800 203.387,94.800 203.605 C 94.800 203.822,94.518 204.000,94.173 204.000 C 93.828 204.000,92.952 204.630,92.226 205.400 C 91.500 206.170,90.702 206.800,90.453 206.800 C 90.204 206.800,90.000 206.968,90.000 207.173 C 90.000 207.378,89.649 207.657,89.220 207.794 C 88.792 207.930,88.320 208.421,88.173 208.887 C 87.724 210.301,86.133 211.600,84.851 211.600 C 83.145 211.600,82.400 211.978,82.400 212.843 C 82.400 213.259,82.220 213.600,82.000 213.600 C 81.741 213.600,81.600 218.467,81.600 227.400 C 81.600 236.333,81.741 241.200,82.000 241.200 C 82.220 241.200,82.400 241.393,82.400 241.629 C 82.400 241.864,82.625 242.308,82.900 242.615 C 84.177 244.038,84.400 244.421,84.400 245.183 C 84.400 245.632,84.580 246.000,84.800 246.000 C 85.020 246.000,85.200 246.270,85.200 246.600 C 85.200 246.930,85.377 247.200,85.592 247.200 C 85.808 247.200,86.098 247.650,86.236 248.200 C 86.389 248.809,86.772 249.200,87.216 249.200 C 87.618 249.200,88.057 249.550,88.193 249.979 C 88.369 250.533,88.952 250.834,90.220 251.024 C 91.199 251.171,92.000 251.450,92.000 251.645 C 92.000 251.840,92.255 252.000,92.567 252.000 C 92.878 252.000,93.198 252.193,93.276 252.428 C 93.361 252.682,95.331 252.951,98.109 253.088 C 101.112 253.236,102.802 253.477,102.806 253.759 C 102.810 254.041,102.924 254.024,103.122 253.712 C 103.364 253.332,116.098 253.199,160.383 253.112 C 205.508 253.023,217.368 252.896,217.500 252.500 C 217.592 252.225,218.030 252.000,218.473 252.000 C 218.916 252.000,220.161 251.100,221.238 250.000 C 222.315 248.900,223.391 248.000,223.629 248.000 C 224.190 248.000,226.400 245.792,226.400 245.231 C 226.400 244.580,227.915 243.200,228.629 243.200 C 228.974 243.200,229.511 242.946,229.821 242.636 C 230.132 242.325,230.587 242.004,230.832 241.923 C 231.077 241.841,231.375 240.565,231.494 239.087 C 231.612 237.609,231.865 236.400,232.055 236.400 C 232.247 236.400,232.400 199.075,232.400 152.000 C 232.400 103.157,232.250 67.600,232.045 67.600 C 231.850 67.600,231.621 66.373,231.536 64.873 C 231.372 61.959,230.154 60.000,228.507 60.000 C 227.761 60.000,226.400 58.706,226.400 57.995 C 226.400 57.778,226.232 57.600,226.027 57.600 C 225.822 57.600,225.537 57.233,225.395 56.784 C 225.241 56.299,224.661 55.872,223.968 55.734 C 223.326 55.605,222.800 55.359,222.800 55.187 C 222.800 53.861,218.975 51.047,216.945 50.879 C 215.765 50.781,214.800 50.543,214.800 50.350 C 214.800 50.158,211.290 50.000,207.000 50.000 C 202.710 50.000,199.200 50.157,199.200 50.349 M94.967 58.943 C 94.734 59.548,94.000 59.883,94.000 59.383 C 94.000 59.098,94.968 58.051,95.109 58.183 C 95.170 58.239,95.105 58.581,94.967 58.943 M95.516 60.219 C 95.232 60.560,94.766 61.055,94.481 61.319 C 94.195 61.584,93.520 62.213,92.981 62.718 C 92.441 63.223,92.000 63.455,92.000 63.234 C 92.000 63.013,92.284 62.599,92.631 62.316 C 92.978 62.032,93.743 61.308,94.331 60.708 C 95.463 59.551,96.391 59.169,95.516 60.219 M190.000 67.015 C 190.000 67.133,189.220 67.988,188.266 68.915 C 187.313 69.842,186.427 70.870,186.298 71.200 C 186.103 71.699,186.058 71.689,186.032 71.139 C 186.014 70.775,186.765 69.662,187.700 68.666 C 189.265 66.998,190.000 66.471,190.000 67.015 M190.046 71.500 C 190.118 73.229,189.954 74.189,189.562 74.333 C 189.363 74.407,189.200 74.902,189.200 75.433 C 189.200 75.965,189.029 76.400,188.820 76.400 C 188.611 76.400,188.318 77.480,188.168 78.800 C 188.019 80.120,187.740 81.200,187.548 81.200 C 187.352 81.200,187.200 104.979,187.200 135.600 C 187.200 171.600,187.065 190.000,186.800 190.000 C 186.535 190.000,186.400 171.600,186.400 135.600 C 186.400 99.600,186.535 81.200,186.800 81.200 C 187.020 81.200,187.200 80.570,187.200 79.800 C 187.200 79.030,187.354 78.400,187.542 78.400 C 187.730 78.400,187.998 77.186,188.136 75.702 C 188.275 74.218,188.571 72.943,188.794 72.869 C 189.017 72.794,189.200 72.208,189.200 71.567 C 189.200 70.085,189.984 70.023,190.046 71.500 M186.000 73.600 C 186.000 74.040,185.820 74.400,185.600 74.400 C 185.380 74.400,185.200 74.040,185.200 73.600 C 185.200 73.160,185.380 72.800,185.600 72.800 C 185.820 72.800,186.000 73.160,186.000 73.600 M185.200 77.000 C 185.200 77.330,185.020 77.600,184.800 77.600 C 184.580 77.600,184.400 77.330,184.400 77.000 C 184.400 76.670,184.580 76.400,184.800 76.400 C 185.020 76.400,185.200 76.670,185.200 77.000 M225.200 149.800 C 225.200 195.267,225.065 218.400,224.800 218.400 C 224.535 218.400,224.400 195.267,224.400 149.800 C 224.400 104.333,224.535 81.200,224.800 81.200 C 225.065 81.200,225.200 104.333,225.200 149.800 M327.357 82.233 C 327.733 83.211,327.651 83.308,327.000 82.657 C 326.320 81.977,326.233 81.600,326.757 81.600 C 326.954 81.600,327.224 81.885,327.357 82.233 M329.357 84.233 C 329.733 85.211,329.651 85.308,329.000 84.657 C 328.320 83.977,328.233 83.600,328.757 83.600 C 328.954 83.600,329.224 83.885,329.357 84.233 M221.600 151.400 C 221.600 192.600,221.465 213.600,221.200 213.600 C 220.935 213.600,220.800 192.600,220.800 151.400 C 220.800 110.200,220.935 89.200,221.200 89.200 C 221.465 89.200,221.600 110.200,221.600 151.400 M13.010 99.448 C 12.653 99.804,12.241 99.974,12.093 99.826 C 11.944 99.678,12.088 99.389,12.412 99.184 C 13.357 98.587,13.713 98.744,13.010 99.448 M188.000 191.800 C 188.000 192.130,187.820 192.400,187.600 192.400 C 187.380 192.400,187.200 192.130,187.200 191.800 C 187.200 191.470,187.380 191.200,187.600 191.200 C 187.820 191.200,188.000 191.470,188.000 191.800 M22.482 204.950 C 22.574 210.383,22.491 211.857,22.100 211.707 C 21.483 211.470,21.368 198.000,21.982 198.000 C 22.206 198.000,22.413 200.882,22.482 204.950 M183.372 206.928 C 183.237 207.281,182.783 207.679,182.363 207.812 C 181.943 207.945,181.600 208.337,181.600 208.684 C 181.600 209.030,181.062 209.828,180.404 210.457 L 179.207 211.600 141.204 211.600 C 116.135 211.600,103.200 211.464,103.200 211.200 C 103.200 210.936,116.066 210.800,140.997 210.800 L 178.795 210.800 181.097 208.451 C 183.460 206.041,183.800 205.813,183.372 206.928 M179.351 207.609 C 179.095 207.865,166.918 207.968,144.778 207.900 L 110.600 207.795 144.900 207.698 C 170.711 207.624,179.200 207.485,179.200 207.133 C 179.200 206.877,179.323 206.790,179.473 206.940 C 179.624 207.090,179.569 207.391,179.351 207.609 M222.400 232.400 C 222.400 232.840,222.220 233.200,222.000 233.200 C 221.780 233.200,221.600 232.840,221.600 232.400 C 221.600 231.960,221.780 231.600,222.000 231.600 C 222.220 231.600,222.400 231.960,222.400 232.400 M222.406 234.100 C 222.410 234.439,222.532 234.410,222.784 234.012 C 222.989 233.688,223.278 233.544,223.426 233.693 C 223.574 233.841,223.404 234.253,223.048 234.610 C 222.691 234.966,222.400 235.424,222.400 235.629 C 222.400 235.833,222.040 236.000,221.600 236.000 C 221.160 236.000,220.800 235.820,220.800 235.600 C 220.800 235.380,221.160 235.200,221.600 235.200 C 222.040 235.200,222.400 235.020,222.400 234.800 C 222.400 234.580,222.220 234.400,222.000 234.400 C 221.780 234.400,221.600 234.220,221.600 234.000 C 221.600 233.780,221.780 233.600,222.000 233.600 C 222.220 233.600,222.403 233.825,222.406 234.100 M218.400 237.600 C 218.400 237.820,218.325 238.000,218.233 238.000 C 218.141 238.000,217.742 238.124,217.346 238.276 C 216.703 238.523,216.689 238.482,217.213 237.891 C 217.881 237.139,218.400 237.012,218.400 237.600 M225.367 239.343 C 225.134 239.948,224.400 240.283,224.400 239.783 C 224.400 239.498,225.368 238.451,225.509 238.583 C 225.570 238.639,225.505 238.981,225.367 239.343 M217.600 240.629 C 217.600 240.754,217.330 241.127,217.000 241.457 C 216.349 242.108,216.267 242.011,216.643 241.033 C 216.871 240.438,217.600 240.130,217.600 240.629 M194.800 242.800 C 194.800 243.064,180.733 243.200,153.400 243.200 C 126.067 243.200,112.000 243.064,112.000 242.800 C 112.000 242.536,126.067 242.400,153.400 242.400 C 180.733 242.400,194.800 242.536,194.800 242.800 M214.800 243.400 C 214.800 243.843,213.162 245.200,212.627 245.200 C 212.312 245.200,211.940 245.560,211.800 246.000 C 211.538 246.825,209.600 247.178,209.600 246.400 C 209.600 246.180,210.038 246.000,210.573 246.000 C 211.194 246.000,211.638 245.711,211.800 245.201 C 211.939 244.761,212.491 244.292,213.027 244.158 C 213.562 244.023,214.000 243.753,214.000 243.557 C 214.000 243.360,214.180 243.200,214.400 243.200 C 214.620 243.200,214.800 243.290,214.800 243.400 M217.600 244.629 C 217.600 244.754,217.346 245.111,217.036 245.421 C 216.725 245.732,216.390 246.214,216.290 246.493 C 216.191 246.772,215.973 246.874,215.807 246.719 C 215.641 246.565,215.796 246.147,216.152 245.790 C 216.509 245.434,216.800 244.976,216.800 244.771 C 216.800 244.567,216.980 244.400,217.200 244.400 C 217.420 244.400,217.600 244.503,217.600 244.629 M362.316 262.219 C 361.812 262.824,361.337 263.294,360.222 264.293 C 359.919 264.564,359.590 265.014,359.490 265.293 C 359.391 265.572,359.177 265.677,359.015 265.527 C 358.715 265.248,361.941 261.643,362.516 261.615 C 362.689 261.607,362.599 261.879,362.316 262.219 M361.600 271.029 C 361.600 271.154,361.321 271.536,360.981 271.876 C 360.200 272.657,359.731 272.266,360.460 271.442 C 361.006 270.824,361.600 270.609,361.600 271.029 M341.200 304.989 C 341.200 305.356,337.521 308.854,337.333 308.666 C 337.228 308.561,337.921 307.666,338.871 306.676 C 340.449 305.033,341.200 304.489,341.200 304.989 M342.000 308.400 C 342.000 308.620,341.820 308.800,341.600 308.800 C 341.380 308.800,341.200 309.070,341.200 309.400 C 341.200 309.730,341.020 310.000,340.800 310.000 C 340.580 310.000,340.400 309.550,340.400 309.000 C 340.400 308.267,340.613 308.000,341.200 308.000 C 341.640 308.000,342.000 308.180,342.000 308.400 M339.414 309.357 C 339.890 309.832,339.835 309.905,339.036 309.857 C 338.468 309.822,338.177 309.604,338.294 309.300 C 338.539 308.661,338.728 308.671,339.414 309.357 M58.215 363.837 C 59.197 364.847,60.000 365.839,60.000 366.042 C 60.000 366.245,59.100 365.506,58.000 364.400 C 56.900 363.294,56.000 362.302,56.000 362.195 C 56.000 361.716,56.552 362.125,58.215 363.837 M62.626 366.307 C 62.478 366.456,62.189 366.312,61.984 365.988 C 61.387 365.043,61.544 364.687,62.248 365.390 C 62.604 365.747,62.774 366.159,62.626 366.307 M63.600 367.600 C 63.600 368.040,63.420 368.400,63.200 368.400 C 62.980 368.400,62.800 368.040,62.800 367.600 C 62.800 367.160,62.980 366.800,63.200 366.800 C 63.420 366.800,63.600 367.160,63.600 367.600 M65.600 369.200 C 65.600 369.420,65.240 369.600,64.800 369.600 C 64.360 369.600,64.000 369.420,64.000 369.200 C 64.000 368.980,64.360 368.800,64.800 368.800 C 65.240 368.800,65.600 368.980,65.600 369.200 M244.000 370.000 C 244.000 370.220,243.925 370.400,243.833 370.400 C 243.741 370.400,243.342 370.524,242.946 370.676 C 242.303 370.923,242.289 370.882,242.813 370.291 C 243.481 369.539,244.000 369.412,244.000 370.000 M244.937 371.917 C 244.811 372.403,244.548 372.800,244.353 372.800 C 244.159 372.800,244.000 373.160,244.000 373.600 C 244.000 374.040,243.820 374.400,243.600 374.400 C 243.380 374.400,243.200 374.040,243.200 373.600 C 243.200 373.160,243.380 372.800,243.600 372.800 C 243.820 372.800,244.000 372.612,244.000 372.383 C 244.000 371.987,244.907 370.795,245.084 370.958 C 245.130 371.000,245.064 371.432,244.937 371.917 " stroke="none" fill="#5c5c5c" fill-rule="evenodd"></path><path id="path1" d="M101.613 13.491 C 101.089 14.082,101.103 14.123,101.746 13.876 C 102.142 13.724,102.541 13.600,102.633 13.600 C 102.725 13.600,102.800 13.420,102.800 13.200 C 102.800 12.612,102.281 12.739,101.613 13.491 M296.800 13.157 C 296.800 13.353,297.250 13.626,297.800 13.764 C 298.350 13.902,298.800 14.184,298.800 14.389 C 298.800 14.763,300.674 16.800,301.018 16.800 C 301.428 16.800,301.117 16.370,299.448 14.629 C 297.796 12.905,296.800 12.351,296.800 13.157 M99.660 15.442 C 98.931 16.266,99.400 16.657,100.181 15.876 C 100.521 15.536,100.800 15.154,100.800 15.029 C 100.800 14.609,100.206 14.824,99.660 15.442 M295.063 16.180 C 294.922 16.548,295.033 16.685,295.369 16.557 C 295.659 16.445,296.150 16.607,296.460 16.917 C 296.944 17.401,297.104 17.393,297.598 16.864 C 298.103 16.323,298.091 16.280,297.498 16.507 C 297.121 16.652,296.566 16.509,296.240 16.183 C 295.512 15.454,295.342 15.454,295.063 16.180 M167.029 27.829 C 166.683 28.174,166.400 28.637,166.400 28.857 C 166.400 29.077,166.713 28.929,167.096 28.529 C 167.479 28.128,167.974 27.668,168.196 27.506 C 168.454 27.319,168.429 27.210,168.129 27.206 C 167.869 27.203,167.374 27.483,167.029 27.829 M125.600 43.200 C 125.600 43.640,125.780 44.000,126.000 44.000 C 126.220 44.000,126.400 43.640,126.400 43.200 C 126.400 42.760,126.220 42.400,126.000 42.400 C 125.780 42.400,125.600 42.760,125.600 43.200 M342.000 45.566 C 342.000 45.787,342.276 46.201,342.614 46.484 C 342.952 46.768,343.500 47.246,343.833 47.548 C 344.166 47.849,344.565 47.959,344.719 47.793 C 344.874 47.627,344.765 47.407,344.477 47.304 C 344.190 47.202,343.515 46.678,342.977 46.141 C 342.440 45.603,342.000 45.345,342.000 45.566 M94.500 58.623 C 93.911 59.263,93.862 59.600,94.357 59.600 C 94.698 59.600,95.337 58.396,95.109 58.183 C 95.049 58.127,94.775 58.325,94.500 58.623 M94.331 60.708 C 93.743 61.308,92.978 62.032,92.631 62.316 C 92.284 62.599,92.000 63.013,92.000 63.234 C 92.000 63.455,92.441 63.223,92.981 62.718 C 93.520 62.213,94.195 61.584,94.481 61.319 C 95.429 60.441,96.036 59.600,95.716 59.608 C 95.542 59.612,94.919 60.107,94.331 60.708 M187.700 68.666 C 186.765 69.662,186.014 70.775,186.032 71.139 C 186.058 71.689,186.103 71.699,186.298 71.200 C 186.427 70.870,187.313 69.842,188.266 68.915 C 189.220 67.988,190.000 67.133,190.000 67.015 C 190.000 66.471,189.265 66.998,187.700 68.666 M189.200 71.567 C 189.200 72.208,189.017 72.794,188.794 72.869 C 188.571 72.943,188.275 74.218,188.136 75.702 C 187.998 77.186,187.730 78.400,187.542 78.400 C 187.354 78.400,187.200 79.030,187.200 79.800 C 187.200 80.570,187.020 81.200,186.800 81.200 C 186.535 81.200,186.400 99.600,186.400 135.600 C 186.400 171.600,186.535 190.000,186.800 190.000 C 187.065 190.000,187.200 171.600,187.200 135.600 C 187.200 104.979,187.352 81.200,187.548 81.200 C 187.740 81.200,188.019 80.120,188.168 78.800 C 188.318 77.480,188.611 76.400,188.820 76.400 C 189.029 76.400,189.200 75.965,189.200 75.433 C 189.200 74.902,189.363 74.407,189.562 74.333 C 190.229 74.087,190.265 70.400,189.600 70.400 C 189.380 70.400,189.200 70.925,189.200 71.567 M185.200 73.600 C 185.200 74.040,185.380 74.400,185.600 74.400 C 185.820 74.400,186.000 74.040,186.000 73.600 C 186.000 73.160,185.820 72.800,185.600 72.800 C 185.380 72.800,185.200 73.160,185.200 73.600 M184.400 77.000 C 184.400 77.330,184.580 77.600,184.800 77.600 C 185.020 77.600,185.200 77.330,185.200 77.000 C 185.200 76.670,185.020 76.400,184.800 76.400 C 184.580 76.400,184.400 76.670,184.400 77.000 M224.400 149.800 C 224.400 195.267,224.535 218.400,224.800 218.400 C 225.065 218.400,225.200 195.267,225.200 149.800 C 225.200 104.333,225.065 81.200,224.800 81.200 C 224.535 81.200,224.400 104.333,224.400 149.800 M326.400 81.829 C 326.400 81.954,326.670 82.327,327.000 82.657 C 327.651 83.308,327.733 83.211,327.357 82.233 C 327.129 81.638,326.400 81.330,326.400 81.829 M328.400 83.829 C 328.400 83.954,328.670 84.327,329.000 84.657 C 329.651 85.308,329.733 85.211,329.357 84.233 C 329.129 83.638,328.400 83.330,328.400 83.829 M220.800 151.400 C 220.800 192.600,220.935 213.600,221.200 213.600 C 221.465 213.600,221.600 192.600,221.600 151.400 C 221.600 110.200,221.465 89.200,221.200 89.200 C 220.935 89.200,220.800 110.200,220.800 151.400 M12.412 99.184 C 12.088 99.389,11.944 99.678,12.093 99.826 C 12.241 99.974,12.653 99.804,13.010 99.448 C 13.713 98.744,13.357 98.587,12.412 99.184 M187.200 191.800 C 187.200 192.130,187.380 192.400,187.600 192.400 C 187.820 192.400,188.000 192.130,188.000 191.800 C 188.000 191.470,187.820 191.200,187.600 191.200 C 187.380 191.200,187.200 191.470,187.200 191.800 M21.600 204.757 C 21.600 209.794,21.727 211.563,22.100 211.707 C 22.491 211.857,22.574 210.383,22.482 204.950 C 22.413 200.882,22.206 198.000,21.982 198.000 C 21.754 198.000,21.600 200.729,21.600 204.757 M181.097 208.451 L 178.795 210.800 140.997 210.800 C 116.066 210.800,103.200 210.936,103.200 211.200 C 103.200 211.464,116.135 211.600,141.204 211.600 L 179.207 211.600 180.404 210.457 C 181.062 209.828,181.600 209.030,181.600 208.684 C 181.600 208.337,181.943 207.945,182.363 207.812 C 183.021 207.603,183.829 206.462,183.509 206.194 C 183.449 206.143,182.364 207.159,181.097 208.451 M179.200 207.133 C 179.200 207.485,170.711 207.624,144.900 207.698 L 110.600 207.795 144.778 207.900 C 177.159 207.999,180.442 207.908,179.473 206.940 C 179.323 206.790,179.200 206.877,179.200 207.133 M221.600 232.400 C 221.600 232.840,221.780 233.200,222.000 233.200 C 222.220 233.200,222.400 232.840,222.400 232.400 C 222.400 231.960,222.220 231.600,222.000 231.600 C 221.780 231.600,221.600 231.960,221.600 232.400 M221.600 234.000 C 221.600 234.220,221.780 234.400,222.000 234.400 C 222.220 234.400,222.400 234.580,222.400 234.800 C 222.400 235.020,222.040 235.200,221.600 235.200 C 221.160 235.200,220.800 235.380,220.800 235.600 C 220.800 235.820,221.160 236.000,221.600 236.000 C 222.040 236.000,222.400 235.833,222.400 235.629 C 222.400 235.424,222.691 234.966,223.048 234.610 C 223.404 234.253,223.574 233.841,223.426 233.693 C 223.278 233.544,222.989 233.688,222.784 234.012 C 222.532 234.410,222.410 234.439,222.406 234.100 C 222.403 233.825,222.220 233.600,222.000 233.600 C 221.780 233.600,221.600 233.780,221.600 234.000 M217.213 237.891 C 216.689 238.482,216.703 238.523,217.346 238.276 C 217.742 238.124,218.141 238.000,218.233 238.000 C 218.325 238.000,218.400 237.820,218.400 237.600 C 218.400 237.012,217.881 237.139,217.213 237.891 M224.900 239.023 C 224.311 239.663,224.262 240.000,224.757 240.000 C 225.098 240.000,225.737 238.796,225.509 238.583 C 225.449 238.527,225.175 238.725,224.900 239.023 M216.643 241.033 C 216.267 242.011,216.349 242.108,217.000 241.457 C 217.680 240.777,217.767 240.400,217.243 240.400 C 217.046 240.400,216.776 240.685,216.643 241.033 M112.000 242.800 C 112.000 243.064,126.067 243.200,153.400 243.200 C 180.733 243.200,194.800 243.064,194.800 242.800 C 194.800 242.536,180.733 242.400,153.400 242.400 C 126.067 242.400,112.000 242.536,112.000 242.800 M214.000 243.557 C 214.000 243.753,213.562 244.023,213.027 244.158 C 212.491 244.292,211.939 244.761,211.800 245.201 C 211.638 245.711,211.194 246.000,210.573 246.000 C 210.038 246.000,209.600 246.180,209.600 246.400 C 209.600 247.178,211.538 246.825,211.800 246.000 C 211.940 245.560,212.312 245.200,212.627 245.200 C 212.942 245.200,213.560 244.840,214.000 244.400 C 214.891 243.509,214.994 243.200,214.400 243.200 C 214.180 243.200,214.000 243.360,214.000 243.557 M216.800 244.771 C 216.800 244.976,216.509 245.434,216.152 245.790 C 215.796 246.147,215.641 246.565,215.807 246.719 C 215.973 246.874,216.191 246.772,216.290 246.493 C 216.390 246.214,216.725 245.732,217.036 245.421 C 217.699 244.758,217.757 244.400,217.200 244.400 C 216.980 244.400,216.800 244.567,216.800 244.771 M360.460 263.442 C 359.503 264.439,358.853 265.377,359.015 265.527 C 359.177 265.677,359.391 265.572,359.490 265.293 C 359.590 265.014,359.919 264.564,360.222 264.293 C 362.069 262.639,362.964 261.594,362.516 261.615 C 362.342 261.624,361.417 262.446,360.460 263.442 M360.460 271.442 C 359.731 272.266,360.200 272.657,360.981 271.876 C 361.321 271.536,361.600 271.154,361.600 271.029 C 361.600 270.609,361.006 270.824,360.460 271.442 M338.871 306.676 C 337.921 307.666,337.228 308.561,337.333 308.666 C 337.521 308.854,341.200 305.356,341.200 304.989 C 341.200 304.489,340.449 305.033,338.871 306.676 M340.400 309.000 C 340.400 309.550,340.580 310.000,340.800 310.000 C 341.020 310.000,341.200 309.730,341.200 309.400 C 341.200 309.070,341.380 308.800,341.600 308.800 C 341.820 308.800,342.000 308.620,342.000 308.400 C 342.000 308.180,341.640 308.000,341.200 308.000 C 340.613 308.000,340.400 308.267,340.400 309.000 M338.294 309.300 C 338.177 309.604,338.468 309.822,339.036 309.857 C 339.835 309.905,339.890 309.832,339.414 309.357 C 338.728 308.671,338.539 308.661,338.294 309.300 M56.000 362.195 C 56.000 362.302,56.900 363.294,58.000 364.400 C 59.100 365.506,60.000 366.245,60.000 366.042 C 60.000 365.839,59.197 364.847,58.215 363.837 C 56.552 362.125,56.000 361.716,56.000 362.195 M61.606 365.071 C 61.618 365.684,62.355 366.578,62.626 366.307 C 62.774 366.159,62.604 365.747,62.248 365.390 C 61.891 365.034,61.603 364.891,61.606 365.071 M62.800 367.600 C 62.800 368.040,62.980 368.400,63.200 368.400 C 63.420 368.400,63.600 368.040,63.600 367.600 C 63.600 367.160,63.420 366.800,63.200 366.800 C 62.980 366.800,62.800 367.160,62.800 367.600 M64.000 369.200 C 64.000 369.420,64.360 369.600,64.800 369.600 C 65.240 369.600,65.600 369.420,65.600 369.200 C 65.600 368.980,65.240 368.800,64.800 368.800 C 64.360 368.800,64.000 368.980,64.000 369.200 M242.813 370.291 C 242.289 370.882,242.303 370.923,242.946 370.676 C 243.342 370.524,243.741 370.400,243.833 370.400 C 243.925 370.400,244.000 370.220,244.000 370.000 C 244.000 369.412,243.481 369.539,242.813 370.291 M244.500 371.423 C 244.225 371.722,244.000 372.154,244.000 372.383 C 244.000 372.612,243.820 372.800,243.600 372.800 C 243.380 372.800,243.200 373.160,243.200 373.600 C 243.200 374.040,243.380 374.400,243.600 374.400 C 243.820 374.400,244.000 374.040,244.000 373.600 C 244.000 373.160,244.159 372.800,244.353 372.800 C 244.661 372.800,245.310 371.165,245.084 370.958 C 245.038 370.915,244.775 371.125,244.500 371.423 " stroke="none" fill="#605c5c" fill-rule="evenodd"></path><path id="path2" d="M101.613 13.491 C 101.089 14.082,101.103 14.123,101.746 13.876 C 102.142 13.724,102.541 13.600,102.633 13.600 C 102.725 13.600,102.800 13.420,102.800 13.200 C 102.800 12.612,102.281 12.739,101.613 13.491 M296.800 13.157 C 296.800 13.353,297.250 13.626,297.800 13.764 C 298.350 13.902,298.800 14.184,298.800 14.389 C 298.800 14.763,300.674 16.800,301.018 16.800 C 301.428 16.800,301.117 16.370,299.448 14.629 C 297.796 12.905,296.800 12.351,296.800 13.157 M99.660 15.442 C 98.931 16.266,99.400 16.657,100.181 15.876 C 100.521 15.536,100.800 15.154,100.800 15.029 C 100.800 14.609,100.206 14.824,99.660 15.442 M295.063 16.180 C 294.922 16.548,295.033 16.685,295.369 16.557 C 295.659 16.445,296.150 16.607,296.460 16.917 C 296.944 17.401,297.104 17.393,297.598 16.864 C 298.103 16.323,298.091 16.280,297.498 16.507 C 297.121 16.652,296.566 16.509,296.240 16.183 C 295.512 15.454,295.342 15.454,295.063 16.180 M167.029 27.829 C 166.683 28.174,166.400 28.637,166.400 28.857 C 166.400 29.077,166.713 28.929,167.096 28.529 C 167.479 28.128,167.974 27.668,168.196 27.506 C 168.454 27.319,168.429 27.210,168.129 27.206 C 167.869 27.203,167.374 27.483,167.029 27.829 M125.600 43.200 C 125.600 43.640,125.780 44.000,126.000 44.000 C 126.220 44.000,126.400 43.640,126.400 43.200 C 126.400 42.760,126.220 42.400,126.000 42.400 C 125.780 42.400,125.600 42.760,125.600 43.200 M342.000 45.566 C 342.000 45.787,342.276 46.201,342.614 46.484 C 342.952 46.768,343.500 47.246,343.833 47.548 C 344.166 47.849,344.565 47.959,344.719 47.793 C 344.874 47.627,344.765 47.407,344.477 47.304 C 344.190 47.202,343.515 46.678,342.977 46.141 C 342.440 45.603,342.000 45.345,342.000 45.566 M94.500 58.623 C 93.911 59.263,93.862 59.600,94.357 59.600 C 94.698 59.600,95.337 58.396,95.109 58.183 C 95.049 58.127,94.775 58.325,94.500 58.623 M94.331 60.708 C 93.743 61.308,92.978 62.032,92.631 62.316 C 92.284 62.599,92.000 63.013,92.000 63.234 C 92.000 63.455,92.441 63.223,92.981 62.718 C 93.520 62.213,94.195 61.584,94.481 61.319 C 95.429 60.441,96.036 59.600,95.716 59.608 C 95.542 59.612,94.919 60.107,94.331 60.708 M187.700 68.666 C 186.765 69.662,186.014 70.775,186.032 71.139 C 186.058 71.689,186.103 71.699,186.298 71.200 C 186.427 70.870,187.313 69.842,188.266 68.915 C 189.220 67.988,190.000 67.133,190.000 67.015 C 190.000 66.471,189.265 66.998,187.700 68.666 M189.200 71.567 C 189.200 72.208,189.017 72.794,188.794 72.869 C 188.571 72.943,188.275 74.218,188.136 75.702 C 187.998 77.186,187.730 78.400,187.542 78.400 C 187.354 78.400,187.200 79.030,187.200 79.800 C 187.200 80.570,187.020 81.200,186.800 81.200 C 186.535 81.200,186.400 99.600,186.400 135.600 C 186.400 171.600,186.535 190.000,186.800 190.000 C 187.065 190.000,187.200 171.600,187.200 135.600 C 187.200 104.979,187.352 81.200,187.548 81.200 C 187.740 81.200,188.019 80.120,188.168 78.800 C 188.318 77.480,188.611 76.400,188.820 76.400 C 189.029 76.400,189.200 75.965,189.200 75.433 C 189.200 74.902,189.363 74.407,189.562 74.333 C 190.229 74.087,190.265 70.400,189.600 70.400 C 189.380 70.400,189.200 70.925,189.200 71.567 M185.200 73.600 C 185.200 74.040,185.380 74.400,185.600 74.400 C 185.820 74.400,186.000 74.040,186.000 73.600 C 186.000 73.160,185.820 72.800,185.600 72.800 C 185.380 72.800,185.200 73.160,185.200 73.600 M184.400 77.000 C 184.400 77.330,184.580 77.600,184.800 77.600 C 185.020 77.600,185.200 77.330,185.200 77.000 C 185.200 76.670,185.020 76.400,184.800 76.400 C 184.580 76.400,184.400 76.670,184.400 77.000 M224.400 149.800 C 224.400 195.267,224.535 218.400,224.800 218.400 C 225.065 218.400,225.200 195.267,225.200 149.800 C 225.200 104.333,225.065 81.200,224.800 81.200 C 224.535 81.200,224.400 104.333,224.400 149.800 M326.400 81.829 C 326.400 81.954,326.670 82.327,327.000 82.657 C 327.651 83.308,327.733 83.211,327.357 82.233 C 327.129 81.638,326.400 81.330,326.400 81.829 M328.400 83.829 C 328.400 83.954,328.670 84.327,329.000 84.657 C 329.651 85.308,329.733 85.211,329.357 84.233 C 329.129 83.638,328.400 83.330,328.400 83.829 M220.800 151.400 C 220.800 192.600,220.935 213.600,221.200 213.600 C 221.465 213.600,221.600 192.600,221.600 151.400 C 221.600 110.200,221.465 89.200,221.200 89.200 C 220.935 89.200,220.800 110.200,220.800 151.400 M12.412 99.184 C 12.088 99.389,11.944 99.678,12.093 99.826 C 12.241 99.974,12.653 99.804,13.010 99.448 C 13.713 98.744,13.357 98.587,12.412 99.184 M187.200 191.800 C 187.200 192.130,187.380 192.400,187.600 192.400 C 187.820 192.400,188.000 192.130,188.000 191.800 C 188.000 191.470,187.820 191.200,187.600 191.200 C 187.380 191.200,187.200 191.470,187.200 191.800 M21.600 204.757 C 21.600 209.794,21.727 211.563,22.100 211.707 C 22.491 211.857,22.574 210.383,22.482 204.950 C 22.413 200.882,22.206 198.000,21.982 198.000 C 21.754 198.000,21.600 200.729,21.600 204.757 M181.097 208.451 L 178.795 210.800 140.997 210.800 C 116.066 210.800,103.200 210.936,103.200 211.200 C 103.200 211.464,116.135 211.600,141.204 211.600 L 179.207 211.600 180.404 210.457 C 181.062 209.828,181.600 209.030,181.600 208.684 C 181.600 208.337,181.943 207.945,182.363 207.812 C 183.021 207.603,183.829 206.462,183.509 206.194 C 183.449 206.143,182.364 207.159,181.097 208.451 M179.200 207.133 C 179.200 207.485,170.711 207.624,144.900 207.698 L 110.600 207.795 144.778 207.900 C 177.159 207.999,180.442 207.908,179.473 206.940 C 179.323 206.790,179.200 206.877,179.200 207.133 M221.600 232.400 C 221.600 232.840,221.780 233.200,222.000 233.200 C 222.220 233.200,222.400 232.840,222.400 232.400 C 222.400 231.960,222.220 231.600,222.000 231.600 C 221.780 231.600,221.600 231.960,221.600 232.400 M221.600 234.000 C 221.600 234.220,221.780 234.400,222.000 234.400 C 222.220 234.400,222.400 234.580,222.400 234.800 C 222.400 235.020,222.040 235.200,221.600 235.200 C 221.160 235.200,220.800 235.380,220.800 235.600 C 220.800 235.820,221.160 236.000,221.600 236.000 C 222.040 236.000,222.400 235.833,222.400 235.629 C 222.400 235.424,222.691 234.966,223.048 234.610 C 223.404 234.253,223.574 233.841,223.426 233.693 C 223.278 233.544,222.989 233.688,222.784 234.012 C 222.532 234.410,222.410 234.439,222.406 234.100 C 222.403 233.825,222.220 233.600,222.000 233.600 C 221.780 233.600,221.600 233.780,221.600 234.000 M217.213 237.891 C 216.689 238.482,216.703 238.523,217.346 238.276 C 217.742 238.124,218.141 238.000,218.233 238.000 C 218.325 238.000,218.400 237.820,218.400 237.600 C 218.400 237.012,217.881 237.139,217.213 237.891 M224.900 239.023 C 224.311 239.663,224.262 240.000,224.757 240.000 C 225.098 240.000,225.737 238.796,225.509 238.583 C 225.449 238.527,225.175 238.725,224.900 239.023 M216.643 241.033 C 216.267 242.011,216.349 242.108,217.000 241.457 C 217.680 240.777,217.767 240.400,217.243 240.400 C 217.046 240.400,216.776 240.685,216.643 241.033 M112.000 242.800 C 112.000 243.064,126.067 243.200,153.400 243.200 C 180.733 243.200,194.800 243.064,194.800 242.800 C 194.800 242.536,180.733 242.400,153.400 242.400 C 126.067 242.400,112.000 242.536,112.000 242.800 M214.000 243.557 C 214.000 243.753,213.562 244.023,213.027 244.158 C 212.491 244.292,211.939 244.761,211.800 245.201 C 211.638 245.711,211.194 246.000,210.573 246.000 C 210.038 246.000,209.600 246.180,209.600 246.400 C 209.600 247.178,211.538 246.825,211.800 246.000 C 211.940 245.560,212.312 245.200,212.627 245.200 C 212.942 245.200,213.560 244.840,214.000 244.400 C 214.891 243.509,214.994 243.200,214.400 243.200 C 214.180 243.200,214.000 243.360,214.000 243.557 M216.800 244.771 C 216.800 244.976,216.509 245.434,216.152 245.790 C 215.796 246.147,215.641 246.565,215.807 246.719 C 215.973 246.874,216.191 246.772,216.290 246.493 C 216.390 246.214,216.725 245.732,217.036 245.421 C 217.699 244.758,217.757 244.400,217.200 244.400 C 216.980 244.400,216.800 244.567,216.800 244.771 M360.460 263.442 C 359.503 264.439,358.853 265.377,359.015 265.527 C 359.177 265.677,359.391 265.572,359.490 265.293 C 359.590 265.014,359.919 264.564,360.222 264.293 C 362.069 262.639,362.964 261.594,362.516 261.615 C 362.342 261.624,361.417 262.446,360.460 263.442 M360.460 271.442 C 359.731 272.266,360.200 272.657,360.981 271.876 C 361.321 271.536,361.600 271.154,361.600 271.029 C 361.600 270.609,361.006 270.824,360.460 271.442 M338.871 306.676 C 337.921 307.666,337.228 308.561,337.333 308.666 C 337.521 308.854,341.200 305.356,341.200 304.989 C 341.200 304.489,340.449 305.033,338.871 306.676 M340.400 309.000 C 340.400 309.550,340.580 310.000,340.800 310.000 C 341.020 310.000,341.200 309.730,341.200 309.400 C 341.200 309.070,341.380 308.800,341.600 308.800 C 341.820 308.800,342.000 308.620,342.000 308.400 C 342.000 308.180,341.640 308.000,341.200 308.000 C 340.613 308.000,340.400 308.267,340.400 309.000 M338.294 309.300 C 338.177 309.604,338.468 309.822,339.036 309.857 C 339.835 309.905,339.890 309.832,339.414 309.357 C 338.728 308.671,338.539 308.661,338.294 309.300 M56.000 362.195 C 56.000 362.302,56.900 363.294,58.000 364.400 C 59.100 365.506,60.000 366.245,60.000 366.042 C 60.000 365.839,59.197 364.847,58.215 363.837 C 56.552 362.125,56.000 361.716,56.000 362.195 M61.606 365.071 C 61.618 365.684,62.355 366.578,62.626 366.307 C 62.774 366.159,62.604 365.747,62.248 365.390 C 61.891 365.034,61.603 364.891,61.606 365.071 M62.800 367.600 C 62.800 368.040,62.980 368.400,63.200 368.400 C 63.420 368.400,63.600 368.040,63.600 367.600 C 63.600 367.160,63.420 366.800,63.200 366.800 C 62.980 366.800,62.800 367.160,62.800 367.600 M64.000 369.200 C 64.000 369.420,64.360 369.600,64.800 369.600 C 65.240 369.600,65.600 369.420,65.600 369.200 C 65.600 368.980,65.240 368.800,64.800 368.800 C 64.360 368.800,64.000 368.980,64.000 369.200 M242.813 370.291 C 242.289 370.882,242.303 370.923,242.946 370.676 C 243.342 370.524,243.741 370.400,243.833 370.400 C 243.925 370.400,244.000 370.220,244.000 370.000 C 244.000 369.412,243.481 369.539,242.813 370.291 M244.500 371.423 C 244.225 371.722,244.000 372.154,244.000 372.383 C 244.000 372.612,243.820 372.800,243.600 372.800 C 243.380 372.800,243.200 373.160,243.200 373.600 C 243.200 374.040,243.380 374.400,243.600 374.400 C 243.820 374.400,244.000 374.040,244.000 373.600 C 244.000 373.160,244.159 372.800,244.353 372.800 C 244.661 372.800,245.310 371.165,245.084 370.958 C 245.038 370.915,244.775 371.125,244.500 371.423 " stroke="none" fill="#605c5c" fill-rule="evenodd"></path><path id="path3" d="M101.613 13.491 C 101.089 14.082,101.103 14.123,101.746 13.876 C 102.142 13.724,102.541 13.600,102.633 13.600 C 102.725 13.600,102.800 13.420,102.800 13.200 C 102.800 12.612,102.281 12.739,101.613 13.491 M296.800 13.157 C 296.800 13.353,297.250 13.626,297.800 13.764 C 298.350 13.902,298.800 14.184,298.800 14.389 C 298.800 14.763,300.674 16.800,301.018 16.800 C 301.428 16.800,301.117 16.370,299.448 14.629 C 297.796 12.905,296.800 12.351,296.800 13.157 M99.660 15.442 C 98.931 16.266,99.400 16.657,100.181 15.876 C 100.521 15.536,100.800 15.154,100.800 15.029 C 100.800 14.609,100.206 14.824,99.660 15.442 M295.063 16.180 C 294.922 16.548,295.033 16.685,295.369 16.557 C 295.659 16.445,296.150 16.607,296.460 16.917 C 296.944 17.401,297.104 17.393,297.598 16.864 C 298.103 16.323,298.091 16.280,297.498 16.507 C 297.121 16.652,296.566 16.509,296.240 16.183 C 295.512 15.454,295.342 15.454,295.063 16.180 M167.029 27.829 C 166.683 28.174,166.400 28.637,166.400 28.857 C 166.400 29.077,166.713 28.929,167.096 28.529 C 167.479 28.128,167.974 27.668,168.196 27.506 C 168.454 27.319,168.429 27.210,168.129 27.206 C 167.869 27.203,167.374 27.483,167.029 27.829 M125.600 43.200 C 125.600 43.640,125.780 44.000,126.000 44.000 C 126.220 44.000,126.400 43.640,126.400 43.200 C 126.400 42.760,126.220 42.400,126.000 42.400 C 125.780 42.400,125.600 42.760,125.600 43.200 M342.000 45.566 C 342.000 45.787,342.276 46.201,342.614 46.484 C 342.952 46.768,343.500 47.246,343.833 47.548 C 344.166 47.849,344.565 47.959,344.719 47.793 C 344.874 47.627,344.765 47.407,344.477 47.304 C 344.190 47.202,343.515 46.678,342.977 46.141 C 342.440 45.603,342.000 45.345,342.000 45.566 M94.500 58.623 C 93.911 59.263,93.862 59.600,94.357 59.600 C 94.698 59.600,95.337 58.396,95.109 58.183 C 95.049 58.127,94.775 58.325,94.500 58.623 M94.331 60.708 C 93.743 61.308,92.978 62.032,92.631 62.316 C 92.284 62.599,92.000 63.013,92.000 63.234 C 92.000 63.455,92.441 63.223,92.981 62.718 C 93.520 62.213,94.195 61.584,94.481 61.319 C 95.429 60.441,96.036 59.600,95.716 59.608 C 95.542 59.612,94.919 60.107,94.331 60.708 M187.700 68.666 C 186.765 69.662,186.014 70.775,186.032 71.139 C 186.058 71.689,186.103 71.699,186.298 71.200 C 186.427 70.870,187.313 69.842,188.266 68.915 C 189.220 67.988,190.000 67.133,190.000 67.015 C 190.000 66.471,189.265 66.998,187.700 68.666 M189.200 71.567 C 189.200 72.208,189.017 72.794,188.794 72.869 C 188.571 72.943,188.275 74.218,188.136 75.702 C 187.998 77.186,187.730 78.400,187.542 78.400 C 187.354 78.400,187.200 79.030,187.200 79.800 C 187.200 80.570,187.020 81.200,186.800 81.200 C 186.535 81.200,186.400 99.600,186.400 135.600 C 186.400 171.600,186.535 190.000,186.800 190.000 C 187.065 190.000,187.200 171.600,187.200 135.600 C 187.200 104.979,187.352 81.200,187.548 81.200 C 187.740 81.200,188.019 80.120,188.168 78.800 C 188.318 77.480,188.611 76.400,188.820 76.400 C 189.029 76.400,189.200 75.965,189.200 75.433 C 189.200 74.902,189.363 74.407,189.562 74.333 C 190.229 74.087,190.265 70.400,189.600 70.400 C 189.380 70.400,189.200 70.925,189.200 71.567 M185.200 73.600 C 185.200 74.040,185.380 74.400,185.600 74.400 C 185.820 74.400,186.000 74.040,186.000 73.600 C 186.000 73.160,185.820 72.800,185.600 72.800 C 185.380 72.800,185.200 73.160,185.200 73.600 M184.400 77.000 C 184.400 77.330,184.580 77.600,184.800 77.600 C 185.020 77.600,185.200 77.330,185.200 77.000 C 185.200 76.670,185.020 76.400,184.800 76.400 C 184.580 76.400,184.400 76.670,184.400 77.000 M224.400 149.800 C 224.400 195.267,224.535 218.400,224.800 218.400 C 225.065 218.400,225.200 195.267,225.200 149.800 C 225.200 104.333,225.065 81.200,224.800 81.200 C 224.535 81.200,224.400 104.333,224.400 149.800 M326.400 81.829 C 326.400 81.954,326.670 82.327,327.000 82.657 C 327.651 83.308,327.733 83.211,327.357 82.233 C 327.129 81.638,326.400 81.330,326.400 81.829 M328.400 83.829 C 328.400 83.954,328.670 84.327,329.000 84.657 C 329.651 85.308,329.733 85.211,329.357 84.233 C 329.129 83.638,328.400 83.330,328.400 83.829 M220.800 151.400 C 220.800 192.600,220.935 213.600,221.200 213.600 C 221.465 213.600,221.600 192.600,221.600 151.400 C 221.600 110.200,221.465 89.200,221.200 89.200 C 220.935 89.200,220.800 110.200,220.800 151.400 M12.412 99.184 C 12.088 99.389,11.944 99.678,12.093 99.826 C 12.241 99.974,12.653 99.804,13.010 99.448 C 13.713 98.744,13.357 98.587,12.412 99.184 M187.200 191.800 C 187.200 192.130,187.380 192.400,187.600 192.400 C 187.820 192.400,188.000 192.130,188.000 191.800 C 188.000 191.470,187.820 191.200,187.600 191.200 C 187.380 191.200,187.200 191.470,187.200 191.800 M21.600 204.757 C 21.600 209.794,21.727 211.563,22.100 211.707 C 22.491 211.857,22.574 210.383,22.482 204.950 C 22.413 200.882,22.206 198.000,21.982 198.000 C 21.754 198.000,21.600 200.729,21.600 204.757 M181.097 208.451 L 178.795 210.800 140.997 210.800 C 116.066 210.800,103.200 210.936,103.200 211.200 C 103.200 211.464,116.135 211.600,141.204 211.600 L 179.207 211.600 180.404 210.457 C 181.062 209.828,181.600 209.030,181.600 208.684 C 181.600 208.337,181.943 207.945,182.363 207.812 C 183.021 207.603,183.829 206.462,183.509 206.194 C 183.449 206.143,182.364 207.159,181.097 208.451 M179.200 207.133 C 179.200 207.485,170.711 207.624,144.900 207.698 L 110.600 207.795 144.778 207.900 C 177.159 207.999,180.442 207.908,179.473 206.940 C 179.323 206.790,179.200 206.877,179.200 207.133 M221.600 232.400 C 221.600 232.840,221.780 233.200,222.000 233.200 C 222.220 233.200,222.400 232.840,222.400 232.400 C 222.400 231.960,222.220 231.600,222.000 231.600 C 221.780 231.600,221.600 231.960,221.600 232.400 M221.600 234.000 C 221.600 234.220,221.780 234.400,222.000 234.400 C 222.220 234.400,222.400 234.580,222.400 234.800 C 222.400 235.020,222.040 235.200,221.600 235.200 C 221.160 235.200,220.800 235.380,220.800 235.600 C 220.800 235.820,221.160 236.000,221.600 236.000 C 222.040 236.000,222.400 235.833,222.400 235.629 C 222.400 235.424,222.691 234.966,223.048 234.610 C 223.404 234.253,223.574 233.841,223.426 233.693 C 223.278 233.544,222.989 233.688,222.784 234.012 C 222.532 234.410,222.410 234.439,222.406 234.100 C 222.403 233.825,222.220 233.600,222.000 233.600 C 221.780 233.600,221.600 233.780,221.600 234.000 M217.213 237.891 C 216.689 238.482,216.703 238.523,217.346 238.276 C 217.742 238.124,218.141 238.000,218.233 238.000 C 218.325 238.000,218.400 237.820,218.400 237.600 C 218.400 237.012,217.881 237.139,217.213 237.891 M224.900 239.023 C 224.311 239.663,224.262 240.000,224.757 240.000 C 225.098 240.000,225.737 238.796,225.509 238.583 C 225.449 238.527,225.175 238.725,224.900 239.023 M216.643 241.033 C 216.267 242.011,216.349 242.108,217.000 241.457 C 217.680 240.777,217.767 240.400,217.243 240.400 C 217.046 240.400,216.776 240.685,216.643 241.033 M112.000 242.800 C 112.000 243.064,126.067 243.200,153.400 243.200 C 180.733 243.200,194.800 243.064,194.800 242.800 C 194.800 242.536,180.733 242.400,153.400 242.400 C 126.067 242.400,112.000 242.536,112.000 242.800 M214.000 243.557 C 214.000 243.753,213.562 244.023,213.027 244.158 C 212.491 244.292,211.939 244.761,211.800 245.201 C 211.638 245.711,211.194 246.000,210.573 246.000 C 210.038 246.000,209.600 246.180,209.600 246.400 C 209.600 247.178,211.538 246.825,211.800 246.000 C 211.940 245.560,212.312 245.200,212.627 245.200 C 212.942 245.200,213.560 244.840,214.000 244.400 C 214.891 243.509,214.994 243.200,214.400 243.200 C 214.180 243.200,214.000 243.360,214.000 243.557 M216.800 244.771 C 216.800 244.976,216.509 245.434,216.152 245.790 C 215.796 246.147,215.641 246.565,215.807 246.719 C 215.973 246.874,216.191 246.772,216.290 246.493 C 216.390 246.214,216.725 245.732,217.036 245.421 C 217.699 244.758,217.757 244.400,217.200 244.400 C 216.980 244.400,216.800 244.567,216.800 244.771 M360.460 263.442 C 359.503 264.439,358.853 265.377,359.015 265.527 C 359.177 265.677,359.391 265.572,359.490 265.293 C 359.590 265.014,359.919 264.564,360.222 264.293 C 362.069 262.639,362.964 261.594,362.516 261.615 C 362.342 261.624,361.417 262.446,360.460 263.442 M360.460 271.442 C 359.731 272.266,360.200 272.657,360.981 271.876 C 361.321 271.536,361.600 271.154,361.600 271.029 C 361.600 270.609,361.006 270.824,360.460 271.442 M338.871 306.676 C 337.921 307.666,337.228 308.561,337.333 308.666 C 337.521 308.854,341.200 305.356,341.200 304.989 C 341.200 304.489,340.449 305.033,338.871 306.676 M340.400 309.000 C 340.400 309.550,340.580 310.000,340.800 310.000 C 341.020 310.000,341.200 309.730,341.200 309.400 C 341.200 309.070,341.380 308.800,341.600 308.800 C 341.820 308.800,342.000 308.620,342.000 308.400 C 342.000 308.180,341.640 308.000,341.200 308.000 C 340.613 308.000,340.400 308.267,340.400 309.000 M338.294 309.300 C 338.177 309.604,338.468 309.822,339.036 309.857 C 339.835 309.905,339.890 309.832,339.414 309.357 C 338.728 308.671,338.539 308.661,338.294 309.300 M56.000 362.195 C 56.000 362.302,56.900 363.294,58.000 364.400 C 59.100 365.506,60.000 366.245,60.000 366.042 C 60.000 365.839,59.197 364.847,58.215 363.837 C 56.552 362.125,56.000 361.716,56.000 362.195 M61.606 365.071 C 61.618 365.684,62.355 366.578,62.626 366.307 C 62.774 366.159,62.604 365.747,62.248 365.390 C 61.891 365.034,61.603 364.891,61.606 365.071 M62.800 367.600 C 62.800 368.040,62.980 368.400,63.200 368.400 C 63.420 368.400,63.600 368.040,63.600 367.600 C 63.600 367.160,63.420 366.800,63.200 366.800 C 62.980 366.800,62.800 367.160,62.800 367.600 M64.000 369.200 C 64.000 369.420,64.360 369.600,64.800 369.600 C 65.240 369.600,65.600 369.420,65.600 369.200 C 65.600 368.980,65.240 368.800,64.800 368.800 C 64.360 368.800,64.000 368.980,64.000 369.200 M242.813 370.291 C 242.289 370.882,242.303 370.923,242.946 370.676 C 243.342 370.524,243.741 370.400,243.833 370.400 C 243.925 370.400,244.000 370.220,244.000 370.000 C 244.000 369.412,243.481 369.539,242.813 370.291 M244.500 371.423 C 244.225 371.722,244.000 372.154,244.000 372.383 C 244.000 372.612,243.820 372.800,243.600 372.800 C 243.380 372.800,243.200 373.160,243.200 373.600 C 243.200 374.040,243.380 374.400,243.600 374.400 C 243.820 374.400,244.000 374.040,244.000 373.600 C 244.000 373.160,244.159 372.800,244.353 372.800 C 244.661 372.800,245.310 371.165,245.084 370.958 C 245.038 370.915,244.775 371.125,244.500 371.423 " stroke="none" fill="#605c5c" fill-rule="evenodd"></path><path id="path4" d="M101.613 13.491 C 101.089 14.082,101.103 14.123,101.746 13.876 C 102.142 13.724,102.541 13.600,102.633 13.600 C 102.725 13.600,102.800 13.420,102.800 13.200 C 102.800 12.612,102.281 12.739,101.613 13.491 M296.800 13.157 C 296.800 13.353,297.250 13.626,297.800 13.764 C 298.350 13.902,298.800 14.184,298.800 14.389 C 298.800 14.763,300.674 16.800,301.018 16.800 C 301.428 16.800,301.117 16.370,299.448 14.629 C 297.796 12.905,296.800 12.351,296.800 13.157 M99.660 15.442 C 98.931 16.266,99.400 16.657,100.181 15.876 C 100.521 15.536,100.800 15.154,100.800 15.029 C 100.800 14.609,100.206 14.824,99.660 15.442 M295.063 16.180 C 294.922 16.548,295.033 16.685,295.369 16.557 C 295.659 16.445,296.150 16.607,296.460 16.917 C 296.944 17.401,297.104 17.393,297.598 16.864 C 298.103 16.323,298.091 16.280,297.498 16.507 C 297.121 16.652,296.566 16.509,296.240 16.183 C 295.512 15.454,295.342 15.454,295.063 16.180 M167.029 27.829 C 166.683 28.174,166.400 28.637,166.400 28.857 C 166.400 29.077,166.713 28.929,167.096 28.529 C 167.479 28.128,167.974 27.668,168.196 27.506 C 168.454 27.319,168.429 27.210,168.129 27.206 C 167.869 27.203,167.374 27.483,167.029 27.829 M125.600 43.200 C 125.600 43.640,125.780 44.000,126.000 44.000 C 126.220 44.000,126.400 43.640,126.400 43.200 C 126.400 42.760,126.220 42.400,126.000 42.400 C 125.780 42.400,125.600 42.760,125.600 43.200 M342.000 45.566 C 342.000 45.787,342.276 46.201,342.614 46.484 C 342.952 46.768,343.500 47.246,343.833 47.548 C 344.166 47.849,344.565 47.959,344.719 47.793 C 344.874 47.627,344.765 47.407,344.477 47.304 C 344.190 47.202,343.515 46.678,342.977 46.141 C 342.440 45.603,342.000 45.345,342.000 45.566 M94.500 58.623 C 93.911 59.263,93.862 59.600,94.357 59.600 C 94.698 59.600,95.337 58.396,95.109 58.183 C 95.049 58.127,94.775 58.325,94.500 58.623 M94.331 60.708 C 93.743 61.308,92.978 62.032,92.631 62.316 C 92.284 62.599,92.000 63.013,92.000 63.234 C 92.000 63.455,92.441 63.223,92.981 62.718 C 93.520 62.213,94.195 61.584,94.481 61.319 C 95.429 60.441,96.036 59.600,95.716 59.608 C 95.542 59.612,94.919 60.107,94.331 60.708 M187.700 68.666 C 186.765 69.662,186.014 70.775,186.032 71.139 C 186.058 71.689,186.103 71.699,186.298 71.200 C 186.427 70.870,187.313 69.842,188.266 68.915 C 189.220 67.988,190.000 67.133,190.000 67.015 C 190.000 66.471,189.265 66.998,187.700 68.666 M189.200 71.567 C 189.200 72.208,189.017 72.794,188.794 72.869 C 188.571 72.943,188.275 74.218,188.136 75.702 C 187.998 77.186,187.730 78.400,187.542 78.400 C 187.354 78.400,187.200 79.030,187.200 79.800 C 187.200 80.570,187.020 81.200,186.800 81.200 C 186.535 81.200,186.400 99.600,186.400 135.600 C 186.400 171.600,186.535 190.000,186.800 190.000 C 187.065 190.000,187.200 171.600,187.200 135.600 C 187.200 104.979,187.352 81.200,187.548 81.200 C 187.740 81.200,188.019 80.120,188.168 78.800 C 188.318 77.480,188.611 76.400,188.820 76.400 C 189.029 76.400,189.200 75.965,189.200 75.433 C 189.200 74.902,189.363 74.407,189.562 74.333 C 190.229 74.087,190.265 70.400,189.600 70.400 C 189.380 70.400,189.200 70.925,189.200 71.567 M185.200 73.600 C 185.200 74.040,185.380 74.400,185.600 74.400 C 185.820 74.400,186.000 74.040,186.000 73.600 C 186.000 73.160,185.820 72.800,185.600 72.800 C 185.380 72.800,185.200 73.160,185.200 73.600 M184.400 77.000 C 184.400 77.330,184.580 77.600,184.800 77.600 C 185.020 77.600,185.200 77.330,185.200 77.000 C 185.200 76.670,185.020 76.400,184.800 76.400 C 184.580 76.400,184.400 76.670,184.400 77.000 M224.400 149.800 C 224.400 195.267,224.535 218.400,224.800 218.400 C 225.065 218.400,225.200 195.267,225.200 149.800 C 225.200 104.333,225.065 81.200,224.800 81.200 C 224.535 81.200,224.400 104.333,224.400 149.800 M326.400 81.829 C 326.400 81.954,326.670 82.327,327.000 82.657 C 327.651 83.308,327.733 83.211,327.357 82.233 C 327.129 81.638,326.400 81.330,326.400 81.829 M328.400 83.829 C 328.400 83.954,328.670 84.327,329.000 84.657 C 329.651 85.308,329.733 85.211,329.357 84.233 C 329.129 83.638,328.400 83.330,328.400 83.829 M220.800 151.400 C 220.800 192.600,220.935 213.600,221.200 213.600 C 221.465 213.600,221.600 192.600,221.600 151.400 C 221.600 110.200,221.465 89.200,221.200 89.200 C 220.935 89.200,220.800 110.200,220.800 151.400 M12.412 99.184 C 12.088 99.389,11.944 99.678,12.093 99.826 C 12.241 99.974,12.653 99.804,13.010 99.448 C 13.713 98.744,13.357 98.587,12.412 99.184 M187.200 191.800 C 187.200 192.130,187.380 192.400,187.600 192.400 C 187.820 192.400,188.000 192.130,188.000 191.800 C 188.000 191.470,187.820 191.200,187.600 191.200 C 187.380 191.200,187.200 191.470,187.200 191.800 M21.600 204.757 C 21.600 209.794,21.727 211.563,22.100 211.707 C 22.491 211.857,22.574 210.383,22.482 204.950 C 22.413 200.882,22.206 198.000,21.982 198.000 C 21.754 198.000,21.600 200.729,21.600 204.757 M181.097 208.451 L 178.795 210.800 140.997 210.800 C 116.066 210.800,103.200 210.936,103.200 211.200 C 103.200 211.464,116.135 211.600,141.204 211.600 L 179.207 211.600 180.404 210.457 C 181.062 209.828,181.600 209.030,181.600 208.684 C 181.600 208.337,181.943 207.945,182.363 207.812 C 183.021 207.603,183.829 206.462,183.509 206.194 C 183.449 206.143,182.364 207.159,181.097 208.451 M179.200 207.133 C 179.200 207.485,170.711 207.624,144.900 207.698 L 110.600 207.795 144.778 207.900 C 177.159 207.999,180.442 207.908,179.473 206.940 C 179.323 206.790,179.200 206.877,179.200 207.133 M221.600 232.400 C 221.600 232.840,221.780 233.200,222.000 233.200 C 222.220 233.200,222.400 232.840,222.400 232.400 C 222.400 231.960,222.220 231.600,222.000 231.600 C 221.780 231.600,221.600 231.960,221.600 232.400 M221.600 234.000 C 221.600 234.220,221.780 234.400,222.000 234.400 C 222.220 234.400,222.400 234.580,222.400 234.800 C 222.400 235.020,222.040 235.200,221.600 235.200 C 221.160 235.200,220.800 235.380,220.800 235.600 C 220.800 235.820,221.160 236.000,221.600 236.000 C 222.040 236.000,222.400 235.833,222.400 235.629 C 222.400 235.424,222.691 234.966,223.048 234.610 C 223.404 234.253,223.574 233.841,223.426 233.693 C 223.278 233.544,222.989 233.688,222.784 234.012 C 222.532 234.410,222.410 234.439,222.406 234.100 C 222.403 233.825,222.220 233.600,222.000 233.600 C 221.780 233.600,221.600 233.780,221.600 234.000 M217.213 237.891 C 216.689 238.482,216.703 238.523,217.346 238.276 C 217.742 238.124,218.141 238.000,218.233 238.000 C 218.325 238.000,218.400 237.820,218.400 237.600 C 218.400 237.012,217.881 237.139,217.213 237.891 M224.900 239.023 C 224.311 239.663,224.262 240.000,224.757 240.000 C 225.098 240.000,225.737 238.796,225.509 238.583 C 225.449 238.527,225.175 238.725,224.900 239.023 M216.643 241.033 C 216.267 242.011,216.349 242.108,217.000 241.457 C 217.680 240.777,217.767 240.400,217.243 240.400 C 217.046 240.400,216.776 240.685,216.643 241.033 M112.000 242.800 C 112.000 243.064,126.067 243.200,153.400 243.200 C 180.733 243.200,194.800 243.064,194.800 242.800 C 194.800 242.536,180.733 242.400,153.400 242.400 C 126.067 242.400,112.000 242.536,112.000 242.800 M214.000 243.557 C 214.000 243.753,213.562 244.023,213.027 244.158 C 212.491 244.292,211.939 244.761,211.800 245.201 C 211.638 245.711,211.194 246.000,210.573 246.000 C 210.038 246.000,209.600 246.180,209.600 246.400 C 209.600 247.178,211.538 246.825,211.800 246.000 C 211.940 245.560,212.312 245.200,212.627 245.200 C 212.942 245.200,213.560 244.840,214.000 244.400 C 214.891 243.509,214.994 243.200,214.400 243.200 C 214.180 243.200,214.000 243.360,214.000 243.557 M216.800 244.771 C 216.800 244.976,216.509 245.434,216.152 245.790 C 215.796 246.147,215.641 246.565,215.807 246.719 C 215.973 246.874,216.191 246.772,216.290 246.493 C 216.390 246.214,216.725 245.732,217.036 245.421 C 217.699 244.758,217.757 244.400,217.200 244.400 C 216.980 244.400,216.800 244.567,216.800 244.771 M360.460 263.442 C 359.503 264.439,358.853 265.377,359.015 265.527 C 359.177 265.677,359.391 265.572,359.490 265.293 C 359.590 265.014,359.919 264.564,360.222 264.293 C 362.069 262.639,362.964 261.594,362.516 261.615 C 362.342 261.624,361.417 262.446,360.460 263.442 M360.460 271.442 C 359.731 272.266,360.200 272.657,360.981 271.876 C 361.321 271.536,361.600 271.154,361.600 271.029 C 361.600 270.609,361.006 270.824,360.460 271.442 M338.871 306.676 C 337.921 307.666,337.228 308.561,337.333 308.666 C 337.521 308.854,341.200 305.356,341.200 304.989 C 341.200 304.489,340.449 305.033,338.871 306.676 M340.400 309.000 C 340.400 309.550,340.580 310.000,340.800 310.000 C 341.020 310.000,341.200 309.730,341.200 309.400 C 341.200 309.070,341.380 308.800,341.600 308.800 C 341.820 308.800,342.000 308.620,342.000 308.400 C 342.000 308.180,341.640 308.000,341.200 308.000 C 340.613 308.000,340.400 308.267,340.400 309.000 M338.294 309.300 C 338.177 309.604,338.468 309.822,339.036 309.857 C 339.835 309.905,339.890 309.832,339.414 309.357 C 338.728 308.671,338.539 308.661,338.294 309.300 M56.000 362.195 C 56.000 362.302,56.900 363.294,58.000 364.400 C 59.100 365.506,60.000 366.245,60.000 366.042 C 60.000 365.839,59.197 364.847,58.215 363.837 C 56.552 362.125,56.000 361.716,56.000 362.195 M61.606 365.071 C 61.618 365.684,62.355 366.578,62.626 366.307 C 62.774 366.159,62.604 365.747,62.248 365.390 C 61.891 365.034,61.603 364.891,61.606 365.071 M62.800 367.600 C 62.800 368.040,62.980 368.400,63.200 368.400 C 63.420 368.400,63.600 368.040,63.600 367.600 C 63.600 367.160,63.420 366.800,63.200 366.800 C 62.980 366.800,62.800 367.160,62.800 367.600 M64.000 369.200 C 64.000 369.420,64.360 369.600,64.800 369.600 C 65.240 369.600,65.600 369.420,65.600 369.200 C 65.600 368.980,65.240 368.800,64.800 368.800 C 64.360 368.800,64.000 368.980,64.000 369.200 M242.813 370.291 C 242.289 370.882,242.303 370.923,242.946 370.676 C 243.342 370.524,243.741 370.400,243.833 370.400 C 243.925 370.400,244.000 370.220,244.000 370.000 C 244.000 369.412,243.481 369.539,242.813 370.291 M244.500 371.423 C 244.225 371.722,244.000 372.154,244.000 372.383 C 244.000 372.612,243.820 372.800,243.600 372.800 C 243.380 372.800,243.200 373.160,243.200 373.600 C 243.200 374.040,243.380 374.400,243.600 374.400 C 243.820 374.400,244.000 374.040,244.000 373.600 C 244.000 373.160,244.159 372.800,244.353 372.800 C 244.661 372.800,245.310 371.165,245.084 370.958 C 245.038 370.915,244.775 371.125,244.500 371.423 " stroke="none" fill="#605c5c" fill-rule="evenodd"></path></g></svg>