<?xml version="1.0" encoding="utf-8"?>
<!-- Generator: Adobe Illustrator 21.0.2, SVG Export Plug-In . SVG Version: 6.00 Build 0)  -->
<svg version="1.1" id="Layer_1" xmlns="http://www.w3.org/2000/svg" xmlns:xlink="http://www.w3.org/1999/xlink" x="0px" y="0px"
	 viewBox="0 0 300 300" style="enable-background:new 0 0 300 300;" xml:space="preserve">
<style type="text/css">
	.st0{fill:#3F95D2;}
	.st1{fill:#FFFFFF;}
	.st2{fill:#FFFFFF;stroke:#FFFFFF;stroke-width:1.8796;stroke-miterlimit:10;}
</style>
<g id="Circle">
	<circle class="st0" cx="150.5" cy="151.3" r="146.1"/>
</g>
<g id="Label">
	<path class="st1" d="M132.7,132c-1.9,0-3.5,1.4-3.5,3.2c0,1.8,1.6,3.2,3.5,3.2h37.7V132H132.7z"/>
	<path class="st1" d="M132.9,153.6c-2.1,0-3.7,1.4-3.7,3.2c0,1.8,1.7,3.2,3.7,3.2h19.6v-6.5H132.9z"/>
	<path class="st1" d="M211.3,78.4H47.1c-8.3,0-15.2,6.8-15.2,15.2v105.8c0,8.3,6.8,15.2,15.2,15.2h102.2c-0.1-2.2-0.1-4.3-0.2-6.5
		c-34,0-68,0-102,0c-4.8,0-8.7-3.9-8.7-8.7V93.6c0-4.8,3.9-8.7,8.7-8.7H103v0h62.9v0h45.3c4.8,0,8.7,3.9,8.7,8.7v21h6.5v-21
		C226.5,85.2,219.7,78.4,211.3,78.4z"/>
	<path class="st2" d="M85.3,114.6c-11.3,0-20.4,9.2-20.4,20.5c0,7.7,4.2,14.4,10.5,17.9c2.9,1.6,6.3,2.6,9.9,2.6
		c3.6,0,7-0.9,9.9-2.6c6.3-3.5,10.5-10.2,10.5-17.9C105.8,123.7,96.6,114.6,85.3,114.6z M85.3,151.8c-9.2,0-16.7-7.5-16.7-16.7
		c0-9.2,7.5-16.8,16.7-16.8c9.2,0,16.7,7.5,16.7,16.8C102,144.3,94.5,151.8,85.3,151.8z"/>
	<path class="st2" d="M116.1,164.1c-2.6-3.5-6.2-6.3-10.7-8.3c-3-1.3-6.4-2.3-10.2-2.9c-3.1-0.5-6.4-0.7-9.9-0.7
		c-3.5,0-6.9,0.2-9.9,0.7c-3.8,0.6-7.2,1.6-10.2,2.9c-4.5,2-8,4.8-10.7,8.3c-4.5,6-4.6,12-4.6,12.3c0,3.1,2.5,5.6,5.6,5.6H115
		c3.1,0,5.6-2.5,5.6-5.6C120.6,176.1,120.6,170.1,116.1,164.1z M115,178.2H55.5c-1,0-1.9-0.8-1.9-1.9c0-0.1,0.1-5.2,3.9-10.2
		c5.1-6.7,14.7-10.2,27.7-10.2c13,0,22.5,3.5,27.7,10.2c3.9,5,3.9,10.2,3.9,10.2C116.9,177.4,116.1,178.2,115,178.2z"/>
</g>
<g id="Printer">
	<path class="st1" d="M267.3,145.8h-8.8v-14.6c0-4.8-3.9-8.8-8.8-8.8h-64.3c-4.8,0-8.8,3.9-8.8,8.8v14.6h-8.8
		c-4.8,0-8.8,3.9-8.8,8.8v52.6c0,4.8,3.9,8.8,8.8,8.8h8.8v14.6c0,4.8,3.9,8.8,8.8,8.8h64.3c4.8,0,8.8-3.9,8.8-8.8V216h8.8
		c4.8,0,8.8-3.9,8.8-8.8v-52.6C276,149.8,272.1,145.8,267.3,145.8z M182.4,131.2c0-1.6,1.3-2.9,2.9-2.9h64.3c1.6,0,2.9,1.3,2.9,2.9
		v14.6h-70.2V131.2z M249.7,233.6h-64.3c-1.6,0-2.9-1.3-2.9-2.9v-38h70.2v38C252.6,232.3,251.3,233.6,249.7,233.6z M270.2,207.2
		c0,1.6-1.3,2.9-2.9,2.9h-8.8v-17.5h2.9c1.6,0,2.9-1.3,2.9-2.9s-1.3-2.9-2.9-2.9h-87.7c-1.6,0-2.9,1.3-2.9,2.9s1.3,2.9,2.9,2.9h2.9
		v17.5h-8.8c-1.6,0-2.9-1.3-2.9-2.9v-52.6c0-1.6,1.3-2.9,2.9-2.9h99.4c1.6,0,2.9,1.3,2.9,2.9V207.2z"/>
	<path class="st1" d="M244.3,204.5h-52.6c-1.6,0-2.9-1.3-2.9-2.9s1.3-2.9,2.9-2.9h52.6c1.6,0,2.9,1.3,2.9,2.9
		S245.9,204.5,244.3,204.5z"/>
	<path class="st1" d="M244.3,216.2h-52.6c-1.6,0-2.9-1.3-2.9-2.9s1.3-2.9,2.9-2.9h52.6c1.6,0,2.9,1.3,2.9,2.9
		S245.9,216.2,244.3,216.2z"/>
	<path class="st1" d="M244.3,227.9h-52.6c-1.6,0-2.9-1.3-2.9-2.9c0-1.6,1.3-2.9,2.9-2.9h52.6c1.6,0,2.9,1.3,2.9,2.9
		C247.2,226.6,245.9,227.9,244.3,227.9z"/>
	<path class="st1" d="M257.3,173.4c-4.8,0-8.8-3.9-8.8-8.8c0-4.8,3.9-8.8,8.8-8.8c4.8,0,8.8,3.9,8.8,8.8
		C266,169.5,262.1,173.4,257.3,173.4z M257.3,161.7c-1.6,0-2.9,1.3-2.9,2.9c0,1.6,1.3,2.9,2.9,2.9c1.6,0,2.9-1.3,2.9-2.9
		C260.2,163.1,258.9,161.7,257.3,161.7z"/>
</g>
</svg>
