<?xml version="1.0" encoding="utf-8"?>
<!-- Generator: Adobe Illustrator 21.0.2, SVG Export Plug-In . SVG Version: 6.00 Build 0)  -->
<svg version="1.1" id="Layer_1" xmlns="http://www.w3.org/2000/svg" xmlns:xlink="http://www.w3.org/1999/xlink" x="0px" y="0px"
	 viewBox="0 0 300 300" style="enable-background:new 0 0 300 300;" xml:space="preserve">
<style type="text/css">
	.st0{fill:#4095D1;}
	.st1{display:none;}
	.st2{display:inline;fill:#FFFFFF;}
	.st3{fill:#FFFFFF;}
	.st4{fill:#FFFFFF;stroke:#FFFFFF;stroke-width:1.8796;stroke-miterlimit:10;}
	.st5{display:inline;fill:#FFFFFF;stroke:#FFFFFF;stroke-width:2.6022;stroke-miterlimit:10;}
	.st6{display:none;fill:#FFFFFF;}
	.st7{display:inline;fill:#FFFFFF;stroke:#FFFFFF;stroke-width:2.5974;stroke-miterlimit:10;}
	.st8{display:inline;}
	.st9{display:none;fill:#45B05B;}
	.st10{fill:none;stroke:#FFFFFF;stroke-width:13.7988;stroke-linecap:round;stroke-linejoin:round;stroke-miterlimit:10;}
</style>
<g id="Circle">
	<circle class="st0" cx="150.5" cy="151.3" r="146.1"/>
</g>
<g id="Label" class="st1">
	<path class="st2" d="M132.7,132c-1.9,0-3.5,1.4-3.5,3.2c0,1.8,1.6,3.2,3.5,3.2h37.7V132H132.7z"/>
	<path class="st2" d="M132.9,153.6c-2.1,0-3.7,1.4-3.7,3.2c0,1.8,1.7,3.2,3.7,3.2h19.6v-6.5H132.9z"/>
	<path class="st3" d="M211.3,78.4H47.1c-8.3,0-15.2,6.8-15.2,15.2v105.8c0,8.3,6.8,15.2,15.2,15.2h102.2c-0.1-2.2-0.1-4.3-0.2-6.5
		c-34,0-68,0-102,0c-4.8,0-8.7-3.9-8.7-8.7V93.6c0-4.8,3.9-8.7,8.7-8.7H103v0h62.9v0h45.3c4.8,0,8.7,3.9,8.7,8.7v21h6.5v-21
		C226.5,85.2,219.7,78.4,211.3,78.4z"/>
	<path class="st4" d="M85.3,114.6c-11.3,0-20.4,9.2-20.4,20.5c0,7.7,4.2,14.4,10.5,17.9c2.9,1.6,6.3,2.6,9.9,2.6
		c3.6,0,7-0.9,9.9-2.6c6.3-3.5,10.5-10.2,10.5-17.9C105.8,123.7,96.6,114.6,85.3,114.6z M85.3,151.8c-9.2,0-16.7-7.5-16.7-16.7
		c0-9.2,7.5-16.8,16.7-16.8c9.2,0,16.7,7.5,16.7,16.8C102,144.3,94.5,151.8,85.3,151.8z"/>
	<path class="st4" d="M116.1,164.1c-2.6-3.5-6.2-6.3-10.7-8.3c-3-1.3-6.4-2.3-10.2-2.9c-3.1-0.5-6.4-0.7-9.9-0.7
		c-3.5,0-6.9,0.2-9.9,0.7c-3.8,0.6-7.2,1.6-10.2,2.9c-4.5,2-8,4.8-10.7,8.3c-4.5,6-4.6,12-4.6,12.3c0,3.1,2.5,5.6,5.6,5.6H115
		c3.1,0,5.6-2.5,5.6-5.6C120.6,176.1,120.6,170.1,116.1,164.1z M115,178.2H55.5c-1,0-1.9-0.8-1.9-1.9c0-0.1,0.1-5.2,3.9-10.2
		c5.1-6.7,14.7-10.2,27.7-10.2c13,0,22.5,3.5,27.7,10.2c3.9,5,3.9,10.2,3.9,10.2C116.9,177.4,116.1,178.2,115,178.2z"/>
</g>
<g id="Printer" class="st1">
	<path class="st2" d="M267.3,145.8h-8.8v-14.6c0-4.8-3.9-8.8-8.8-8.8h-64.3c-4.8,0-8.8,3.9-8.8,8.8v14.6h-8.8
		c-4.8,0-8.8,3.9-8.8,8.8v52.6c0,4.8,3.9,8.8,8.8,8.8h8.8v14.6c0,4.8,3.9,8.8,8.8,8.8h64.3c4.8,0,8.8-3.9,8.8-8.8V216h8.8
		c4.8,0,8.8-3.9,8.8-8.8v-52.6C276,149.8,272.1,145.8,267.3,145.8z M182.4,131.2c0-1.6,1.3-2.9,2.9-2.9h64.3c1.6,0,2.9,1.3,2.9,2.9
		v14.6h-70.2V131.2z M249.7,233.6h-64.3c-1.6,0-2.9-1.3-2.9-2.9v-38h70.2v38C252.6,232.3,251.3,233.6,249.7,233.6z M270.2,207.2
		c0,1.6-1.3,2.9-2.9,2.9h-8.8v-17.5h2.9c1.6,0,2.9-1.3,2.9-2.9s-1.3-2.9-2.9-2.9h-87.7c-1.6,0-2.9,1.3-2.9,2.9s1.3,2.9,2.9,2.9h2.9
		v17.5h-8.8c-1.6,0-2.9-1.3-2.9-2.9v-52.6c0-1.6,1.3-2.9,2.9-2.9h99.4c1.6,0,2.9,1.3,2.9,2.9V207.2z"/>
	<path class="st2" d="M244.3,204.5h-52.6c-1.6,0-2.9-1.3-2.9-2.9s1.3-2.9,2.9-2.9h52.6c1.6,0,2.9,1.3,2.9,2.9
		S245.9,204.5,244.3,204.5z"/>
	<path class="st2" d="M244.3,216.2h-52.6c-1.6,0-2.9-1.3-2.9-2.9s1.3-2.9,2.9-2.9h52.6c1.6,0,2.9,1.3,2.9,2.9
		S245.9,216.2,244.3,216.2z"/>
	<path class="st2" d="M244.3,227.9h-52.6c-1.6,0-2.9-1.3-2.9-2.9c0-1.6,1.3-2.9,2.9-2.9h52.6c1.6,0,2.9,1.3,2.9,2.9
		C247.2,226.6,245.9,227.9,244.3,227.9z"/>
	<path class="st2" d="M257.3,173.4c-4.8,0-8.8-3.9-8.8-8.8c0-4.8,3.9-8.8,8.8-8.8c4.8,0,8.8,3.9,8.8,8.8
		C266,169.5,262.1,173.4,257.3,173.4z M257.3,161.7c-1.6,0-2.9,1.3-2.9,2.9c0,1.6,1.3,2.9,2.9,2.9c1.6,0,2.9-1.3,2.9-2.9
		C260.2,163.1,258.9,161.7,257.3,161.7z"/>
</g>
<g id="Badge" class="st1">
	<path class="st3" d="M204,132.2h-71.4c-1.8,0-3.2,1.4-3.2,3.2c0,1.8,1.5,3.2,3.2,3.2H204c1.8,0,3.2-1.4,3.2-3.2
		C207.2,133.6,205.8,132.2,204,132.2z"/>
	<path class="st3" d="M204,153.6h-71.4c-1.8,0-3.2,1.4-3.2,3.2c0,1.8,1.5,3.2,3.2,3.2H204c1.8,0,3.2-1.4,3.2-3.2
		C207.2,155.1,205.8,153.6,204,153.6z"/>
	<path class="st2" d="M211.5,78.5h-59.5V53.6c0-4.2-3.4-7.5-7.5-7.5h-30.4c-4.1,0-7.5,3.4-7.5,7.5v24.9H47.2
		c-8.4,0-15.2,6.8-15.2,15.2v105.9c0,8.4,6.8,15.2,15.2,15.2h104v-6.5h-104c-4.8,0-8.7-3.9-8.7-8.7V93.7c0-4.8,3.9-8.7,8.7-8.7h59.4
		v12c0,4.1,3.4,7.5,7.5,7.5h30.4c4.1,0,7.5-3.4,7.5-7.5V85h59.5c4.8,0,8.7,3.9,8.7,8.7v22.2h6.5V93.7
		C226.7,85.3,219.9,78.5,211.5,78.5z M145.6,97c0,0.6-0.5,1-1,1h-30.4c-0.5,0-1-0.5-1-1V53.6c0-0.6,0.5-1,1-1h30.4c0.6,0,1,0.4,1,1
		V97z"/>
	<path class="st2" d="M129.4,55.8c-7.2,0-13,5.8-13,13c0,7.2,5.8,13,13,13c7.2,0,13-5.8,13-13C142.4,61.6,136.5,55.8,129.4,55.8z
		 M129.4,75.3c-3.6,0-6.5-2.9-6.5-6.5c0-3.6,2.9-6.5,6.5-6.5s6.5,2.9,6.5,6.5C135.9,72.3,133,75.3,129.4,75.3z"/>
	<path class="st5" d="M85.4,114.7c-11.3,0-20.5,9.2-20.5,20.5c0,7.7,4.3,14.4,10.5,17.9c2.9,1.6,6.3,2.6,9.9,2.6
		c3.6,0,7-0.9,9.9-2.6c6.3-3.5,10.6-10.2,10.6-17.9C105.9,123.9,96.7,114.7,85.4,114.7z M85.4,151.9c-9.2,0-16.8-7.5-16.8-16.8
		s7.5-16.8,16.8-16.8c9.2,0,16.8,7.5,16.8,16.8S94.7,151.9,85.4,151.9z"/>
	<path class="st5" d="M116.2,164.2c-2.6-3.5-6.2-6.3-10.7-8.3c-3-1.3-6.4-2.3-10.2-2.9c-3.1-0.5-6.4-0.8-9.9-0.8
		c-3.5,0-6.9,0.2-9.9,0.8c-3.8,0.6-7.2,1.6-10.2,2.9c-4.5,2-8.1,4.8-10.7,8.3c-4.5,6-4.6,12-4.6,12.3c0,3.1,2.5,5.6,5.6,5.6h59.6
		c3.1,0,5.6-2.5,5.6-5.6C120.8,176.3,120.7,170.2,116.2,164.2z M115.2,178.4H55.6c-1,0-1.9-0.8-1.9-1.9c0,0,0.1-5.2,3.9-10.2
		c5.1-6.7,14.7-10.3,27.7-10.3c13,0,22.6,3.5,27.7,10.3c3.8,5,3.9,10.2,3.9,10.2C117.1,177.5,116.2,178.4,115.2,178.4z"/>
</g>
<path class="st6" d="M207.2,156.9c0,1.8-1.4,3.2-3.2,3.2h-52.8v-6.5H204C205.8,153.6,207.2,155.1,207.2,156.9z"/>
<path class="st6" d="M204,138.6h-52.8v-6.5H204c1.8,0,3.2,1.4,3.2,3.2C207.2,137.2,205.8,138.6,204,138.6z"/>
<g class="st1">
	<path class="st2" d="M132.3,132.4c-1.8,0-3.2,1.4-3.2,3.2c0,1.8,1.5,3.2,3.2,3.2h37.4c1.5-2.3,3.2-4.4,5-6.5H132.3z"/>
	<path class="st2" d="M132.3,153.3c-1.8,0-3.2,1.4-3.2,3.2c0,1.8,1.5,3.2,3.2,3.2h28.9c0.5-2.2,1.2-4.4,2-6.5H132.3z"/>
	<path class="st2" d="M211.1,78.9h-59.3V54c0-4.2-3.4-7.5-7.5-7.5h-30.4c-4.1,0-7.5,3.3-7.5,7.5v24.9H47c-8.3,0-15.1,6.8-15.1,15.1
		v105.7c0,8.4,6.8,15.2,15.1,15.2h125.2c-1.6-2.1-3.1-4.2-4.4-6.5H47c-4.8,0-8.7-3.9-8.7-8.7V94c0-4.8,3.9-8.7,8.7-8.7h59.3v11.9
		c0,4.1,3.4,7.5,7.5,7.5h30.4c4.1,0,7.5-3.3,7.5-7.5V85.4h59.3c4.8,0,8.7,3.9,8.7,8.7v21.7c0.4,0,0.8,0,1.3,0c1.8,0,3.5,0.1,5.2,0.2
		V94C226.2,85.7,219.4,78.9,211.1,78.9z M145.3,97.3c0,0.6-0.5,1-1,1h-30.4c-0.5,0-1-0.5-1-1V54c0-0.6,0.5-1,1-1h30.4
		c0.5,0,1,0.5,1,1V97.3z"/>
	<path class="st2" d="M129.1,56.2c-7.2,0-13,5.8-13,13c0,7.1,5.8,13,13,13c7.1,0,13-5.8,13-13C142,62,136.2,56.2,129.1,56.2z
		 M129.1,75.6c-3.6,0-6.5-2.9-6.5-6.5c0-3.6,2.9-6.5,6.5-6.5c3.6,0,6.5,2.9,6.5,6.5C135.6,72.7,132.7,75.6,129.1,75.6z"/>
	<path class="st7" d="M85.2,115c-11.3,0-20.4,9.2-20.4,20.4c0,7.7,4.2,14.4,10.5,17.9c2.9,1.6,6.3,2.6,9.9,2.6c3.6,0,7-0.9,9.9-2.6
		c6.3-3.5,10.5-10.2,10.5-17.9C105.6,124.2,96.5,115,85.2,115z M85.2,152.2c-9.2,0-16.7-7.5-16.7-16.7c0-9.2,7.5-16.7,16.7-16.7
		c9.2,0,16.7,7.5,16.7,16.7C101.9,144.6,94.4,152.2,85.2,152.2z"/>
	<path class="st7" d="M116,164.4c-2.6-3.5-6.2-6.3-10.7-8.2c-3-1.3-6.4-2.3-10.2-2.9c-3.1-0.5-6.4-0.8-9.9-0.8
		c-3.5,0-6.8,0.2-9.9,0.8c-3.8,0.6-7.2,1.6-10.2,2.9c-4.4,2-8,4.8-10.7,8.2c-4.5,6-4.5,12-4.5,12.3c0,3.1,2.5,5.6,5.6,5.6h59.5
		c3.1,0,5.6-2.5,5.6-5.6C120.5,176.5,120.5,170.5,116,164.4z M114.9,178.6H55.5c-1,0-1.9-0.8-1.9-1.9c0,0,0.1-5.2,3.9-10.2
		c5.1-6.7,14.7-10.2,27.7-10.2c13,0,22.5,3.5,27.7,10.2c3.9,5,3.9,10.1,3.9,10.2C116.8,177.7,116,178.6,114.9,178.6z"/>
</g>
<g id="Check" class="st1">
	<path class="st2" d="M261.5,138.5c-10.5-10.5-24.6-16.4-39.5-16.4c-14.9,0-28.9,5.8-39.5,16.4C172,149,166.2,163.1,166.2,178
		s5.8,28.9,16.4,39.5c10.5,10.5,24.6,16.4,39.5,16.4c14.9,0,28.9-5.8,39.5-16.4c10.5-10.5,16.4-24.6,16.4-39.5S272,149,261.5,138.5z
		 M222,227.3c-27.2,0-49.3-22.1-49.3-49.3s22.1-49.3,49.3-49.3s49.3,22.1,49.3,49.3S249.2,227.3,222,227.3z"/>
	<path class="st2" d="M244.1,160.1l-28.9,28.9L200,173.7c-1.3-1.3-3.3-1.3-4.6,0c-1.3,1.3-1.3,3.3,0,4.6l17.5,17.5
		c0.6,0.6,1.5,1,2.3,1s1.7-0.3,2.3-1l31.2-31.2c1.3-1.3,1.3-3.3,0-4.6C247.4,158.8,245.3,158.8,244.1,160.1z"/>
</g>
<path class="st6" d="M179.9,132.5c-2.2,2-4.2,4.2-6.1,6.5h-42c-1.6,0-3-1.3-3-3v-0.5c0-1.6,1.4-3,3-3H179.9z"/>
<g id="New_User" class="st1">
	<g class="st8">
		<g>
			<path class="st3" d="M196.3,140.1c-4-1.9-8.1-3.5-12.3-4.9c13.5-10.1,22.2-26.2,22.2-44.3c0-30.5-24.8-55.4-55.4-55.4
				S95.5,60.3,95.5,90.9c0,18.1,8.8,34.2,22.3,44.4c-12.4,4.1-24,10.4-34.1,18.8C65,169.3,52,190.7,47.1,214.2
				c-1.5,7.4,0.3,14.9,5,20.7c4.7,5.8,11.7,9.1,19.2,9.1h100.3c4.5,0,8.1-3.6,8.1-8.1c0-4.5-3.6-8.1-8.1-8.1H71.3
				c-3.5,0-5.6-1.9-6.5-3.1c-1.6-2-2.3-4.6-1.7-7.1c8.5-40.6,44.3-70.3,85.6-71.3c0.7,0,1.4,0,2.2,0c0.7,0,1.5,0,2.2,0
				c12.7,0.3,24.9,3.2,36.3,8.6c4.1,1.9,8.9,0.2,10.9-3.9C202.1,146.9,200.4,142.1,196.3,140.1z M152.9,129.9c-0.7,0-1.3,0-2,0
				c-0.7,0-1.3,0-2,0c-20.6-1-37.1-18.2-37.1-39.1c0-21.6,17.5-39.1,39.1-39.1S190,69.3,190,90.9C190,111.8,173.5,128.9,152.9,129.9
				z"/>
			<path class="st3" d="M71.3,241c-6.6,0-12.7-2.9-16.8-8c-4.2-5.1-5.8-11.8-4.4-18.2c4.8-22.8,17.3-43.6,35.4-58.5
				c9.8-8.1,21-14.2,33.2-18.2l5.5-1.8l-4.6-3.5c-13.4-10-21.1-25.3-21.1-42c0-28.9,23.5-52.4,52.4-52.4c28.9,0,52.4,23.5,52.4,52.4
				c0,16.6-7.7,31.9-21,41.9l-4.6,3.4l5.5,1.8c4,1.3,8,2.9,11.9,4.8c1.2,0.6,2.2,1.6,2.6,2.9c0.5,1.3,0.4,2.7-0.2,3.9
				c-0.8,1.8-2.7,2.9-4.7,2.9c0,0,0,0,0,0c-0.8,0-1.5-0.2-2.2-0.5c-11.8-5.6-24.4-8.6-37.5-8.9l-0.1,0l-0.1,0c-0.7,0-1.4,0-2.1,0
				c-0.7,0-1.4,0-2,0l-0.1,0l-0.1,0c-20.7,0.5-40.9,8.1-57,21.5c-16.1,13.4-27.3,31.9-31.5,52.2c-0.7,3.4,0.1,6.9,2.3,9.6
				c1.3,1.6,4.1,4.2,8.8,4.2h100.3c2.8,0,5.1,2.3,5.1,5.1c0,2.8-2.3,5.1-5.1,5.1H71.3z M150.9,48.8c-23.2,0-42.1,18.9-42.1,42.1
				c0,22.5,17.6,40.9,40,42l0.1,0l0.1,0c0.6,0,1.3,0,1.9,0c0.6,0,1.3,0,1.9,0l0.1,0l0.1,0c22.4-1.1,40-19.6,40-42
				C193,67.7,174.1,48.8,150.9,48.8z"/>
			<path class="st3" d="M196.3,140.1c-4-1.9-8.1-3.5-12.3-4.9c13.5-10.1,22.2-26.2,22.2-44.3c0-30.5-24.8-55.4-55.4-55.4
				S95.5,60.3,95.5,90.9c0,18.1,8.8,34.2,22.3,44.4c-12.4,4.1-24,10.4-34.1,18.8C65,169.3,52,190.7,47.1,214.2
				c-1.5,7.4,0.3,14.9,5,20.7c4.7,5.8,11.7,9.1,19.2,9.1h100.3c4.5,0,8.1-3.6,8.1-8.1c0-4.5-3.6-8.1-8.1-8.1H71.3
				c-3.5,0-5.6-1.9-6.5-3.1c-1.6-2-2.3-4.6-1.7-7.1c8.5-40.6,44.3-70.3,85.6-71.3c0.7,0,1.4,0,2.2,0c0.7,0,1.5,0,2.2,0
				c12.7,0.3,24.9,3.2,36.3,8.6c4.1,1.9,8.9,0.2,10.9-3.9C202.1,146.9,200.4,142.1,196.3,140.1z M152.9,129.9c-0.7,0-1.3,0-2,0
				c-0.7,0-1.3,0-2,0c-20.6-1-37.1-18.2-37.1-39.1c0-21.6,17.5-39.1,39.1-39.1S190,69.3,190,90.9C190,111.8,173.5,128.9,152.9,129.9
				z"/>
			<path class="st3" d="M71.3,241c-6.6,0-12.7-2.9-16.8-8c-4.2-5.1-5.8-11.8-4.4-18.2c4.8-22.8,17.3-43.6,35.4-58.5
				c9.8-8.1,21-14.2,33.2-18.2l5.5-1.8l-4.6-3.5c-13.4-10-21.1-25.3-21.1-42c0-28.9,23.5-52.4,52.4-52.4c28.9,0,52.4,23.5,52.4,52.4
				c0,16.6-7.7,31.9-21,41.9l-4.6,3.4l5.5,1.8c4,1.3,8,2.9,11.9,4.8c1.2,0.6,2.2,1.6,2.6,2.9c0.5,1.3,0.4,2.7-0.2,3.9
				c-0.8,1.8-2.7,2.9-4.7,2.9c0,0,0,0,0,0c-0.8,0-1.5-0.2-2.2-0.5c-11.8-5.6-24.4-8.6-37.5-8.9l-0.1,0l-0.1,0c-0.7,0-1.4,0-2.1,0
				c-0.7,0-1.4,0-2,0l-0.1,0l-0.1,0c-20.7,0.5-40.9,8.1-57,21.5c-16.1,13.4-27.3,31.9-31.5,52.2c-0.7,3.4,0.1,6.9,2.3,9.6
				c1.3,1.6,4.1,4.2,8.8,4.2h100.3c2.8,0,5.1,2.3,5.1,5.1c0,2.8-2.3,5.1-5.1,5.1H71.3z M150.9,48.8c-23.2,0-42.1,18.9-42.1,42.1
				c0,22.5,17.6,40.9,40,42l0.1,0l0.1,0c0.6,0,1.3,0,1.9,0c0.6,0,1.3,0,1.9,0l0.1,0l0.1,0c22.4-1.1,40-19.6,40-42
				C193,67.7,174.1,48.8,150.9,48.8z"/>
		</g>
	</g>
	<g class="st8">
		<g>
			<path class="st3" d="M247,197.2h-22.4v-22.4c0-4.5-3.6-8.1-8.1-8.1c-4.5,0-8.1,3.6-8.1,8.1v22.4h-22.4c-4.5,0-8.1,3.6-8.1,8.1
				c0,4.5,3.6,8.1,8.1,8.1h22.4v22.4c0,4.5,3.6,8.1,8.1,8.1c4.5,0,8.1-3.6,8.1-8.1v-22.4H247c4.5,0,8.1-3.6,8.1-8.1
				C255.1,200.8,251.5,197.2,247,197.2z"/>
			<path class="st3" d="M216.4,241c-2.8,0-5.1-2.3-5.1-5.1v-25.4h-25.4c-2.8,0-5.1-2.3-5.1-5.1c0-2.8,2.3-5.1,5.1-5.1h25.4v-25.4
				c0-2.8,2.3-5.1,5.1-5.1c2.8,0,5.1,2.3,5.1,5.1v25.4H247c2.8,0,5.1,2.3,5.1,5.1c0,2.8-2.3,5.1-5.1,5.1h-25.4v25.4
				C221.6,238.7,219.3,241,216.4,241z"/>
			<path class="st3" d="M247,197.2h-22.4v-22.4c0-4.5-3.6-8.1-8.1-8.1c-4.5,0-8.1,3.6-8.1,8.1v22.4h-22.4c-4.5,0-8.1,3.6-8.1,8.1
				c0,4.5,3.6,8.1,8.1,8.1h22.4v22.4c0,4.5,3.6,8.1,8.1,8.1c4.5,0,8.1-3.6,8.1-8.1v-22.4H247c4.5,0,8.1-3.6,8.1-8.1
				C255.1,200.8,251.5,197.2,247,197.2z"/>
			<path class="st3" d="M216.4,241c-2.8,0-5.1-2.3-5.1-5.1v-25.4h-25.4c-2.8,0-5.1-2.3-5.1-5.1c0-2.8,2.3-5.1,5.1-5.1h25.4v-25.4
				c0-2.8,2.3-5.1,5.1-5.1c2.8,0,5.1,2.3,5.1,5.1v25.4H247c2.8,0,5.1,2.3,5.1,5.1c0,2.8-2.3,5.1-5.1,5.1h-25.4v25.4
				C221.6,238.7,219.3,241,216.4,241z"/>
		</g>
	</g>
</g>
<g id="New_User_Thin" class="st1">
	<path class="st2" d="M70.2,239.5c-6.6,0-12.7-2.9-16.8-8c-4.2-5.1-5.8-11.8-4.4-18.2c4.8-22.8,17.3-43.6,35.4-58.5
		c9.8-8.1,21-14.2,33.2-18.2l5.5-1.8l-4.6-3.5c-13.4-10-21.1-25.3-21.1-42c0-28.9,23.5-52.4,52.4-52.4c28.9,0,52.4,23.5,52.4,52.4
		c0,16.6-7.7,31.9-21,41.9l-4.6,3.4l5.5,1.8c4,1.3,8,2.9,11.9,4.8c1.2,0.6,2.2,1.6,2.6,2.9c0.5,1.3,0.4,2.7-0.2,3.9
		c-0.8,1.8-2.7,2.9-4.7,2.9c0,0,0,0,0,0c-0.8,0-1.5-0.2-2.2-0.5c-11.8-5.6-24.4-8.6-37.5-8.9l-0.1,0l-0.1,0c-0.7,0-1.4,0-2.1,0
		c-0.7,0-1.4,0-2,0l-0.1,0l-0.1,0c-20.7,0.5-40.9,8.1-57,21.5c-16.1,13.4-27.3,31.9-31.5,52.2c-0.7,3.4,0.1,6.9,2.3,9.6
		c1.3,1.6,4.1,4.2,8.8,4.2h100.3c2.8,0,5.1,2.3,5.1,5.1c0,2.8-2.3,5.1-5.1,5.1H70.2z M149.7,47.3c-23.2,0-42.1,18.9-42.1,42.1
		c0,22.5,17.6,40.9,40,42l0.1,0l0.1,0c0.6,0,1.3,0,1.9,0c0.6,0,1.3,0,1.9,0l0.1,0l0.1,0c22.4-1.1,40-19.6,40-42
		C191.8,66.2,172.9,47.3,149.7,47.3z"/>
	<path class="st2" d="M70.2,239.5c-6.6,0-12.7-2.9-16.8-8c-4.2-5.1-5.8-11.8-4.4-18.2c4.8-22.8,17.3-43.6,35.4-58.5
		c9.8-8.1,21-14.2,33.2-18.2l5.5-1.8l-4.6-3.5c-13.4-10-21.1-25.3-21.1-42c0-28.9,23.5-52.4,52.4-52.4c28.9,0,52.4,23.5,52.4,52.4
		c0,16.6-7.7,31.9-21,41.9l-4.6,3.4l5.5,1.8c4,1.3,8,2.9,11.9,4.8c1.2,0.6,2.2,1.6,2.6,2.9c0.5,1.3,0.4,2.7-0.2,3.9
		c-0.8,1.8-2.7,2.9-4.7,2.9c0,0,0,0,0,0c-0.8,0-1.5-0.2-2.2-0.5c-11.8-5.6-24.4-8.6-37.5-8.9l-0.1,0l-0.1,0c-0.7,0-1.4,0-2.1,0
		c-0.7,0-1.4,0-2,0l-0.1,0l-0.1,0c-20.7,0.5-40.9,8.1-57,21.5c-16.1,13.4-27.3,31.9-31.5,52.2c-0.7,3.4,0.1,6.9,2.3,9.6
		c1.3,1.6,4.1,4.2,8.8,4.2h100.3c2.8,0,5.1,2.3,5.1,5.1c0,2.8-2.3,5.1-5.1,5.1H70.2z M149.7,47.3c-23.2,0-42.1,18.9-42.1,42.1
		c0,22.5,17.6,40.9,40,42l0.1,0l0.1,0c0.6,0,1.3,0,1.9,0c0.6,0,1.3,0,1.9,0l0.1,0l0.1,0c22.4-1.1,40-19.6,40-42
		C191.8,66.2,172.9,47.3,149.7,47.3z"/>
	<path class="st2" d="M215.3,239.5c-2.8,0-5.1-2.3-5.1-5.1V209h-25.4c-2.8,0-5.1-2.3-5.1-5.1c0-2.8,2.3-5.1,5.1-5.1h25.4v-25.4
		c0-2.8,2.3-5.1,5.1-5.1c2.8,0,5.1,2.3,5.1,5.1v25.4h25.4c2.8,0,5.1,2.3,5.1,5.1c0,2.8-2.3,5.1-5.1,5.1h-25.4v25.4
		C220.4,237.2,218.1,239.5,215.3,239.5z"/>
	<path class="st2" d="M215.3,239.5c-2.8,0-5.1-2.3-5.1-5.1V209h-25.4c-2.8,0-5.1-2.3-5.1-5.1c0-2.8,2.3-5.1,5.1-5.1h25.4v-25.4
		c0-2.8,2.3-5.1,5.1-5.1c2.8,0,5.1,2.3,5.1,5.1v25.4h25.4c2.8,0,5.1,2.3,5.1,5.1c0,2.8-2.3,5.1-5.1,5.1h-25.4v25.4
		C220.4,237.2,218.1,239.5,215.3,239.5z"/>
</g>
<g>
	<path class="st9" d="M305.8,153.2c0,85.6-69.3,154.9-154.9,154.9S-4,238.7-4,153.2S65.3-1.7,150.9-1.7S305.8,67.6,305.8,153.2
		L305.8,153.2z M305.8,153.2"/>
	<path class="st10" d="M150.9,78.8v154.9 M228.3,153.2H73.4"/>
</g>
</svg>
